<svg xmlns="http://www.w3.org/2000/svg" viewBox="0 0 128 128"><defs><style>.cls-1{fill:#8cc63f;}.cls-2{fill:none;stroke:#000;stroke-miterlimit:10;stroke-width:2px;}</style></defs><g id="Content"><path class="cls-1" d="M63.22,21.37A8.41,8.41,0,0,1,68.33,23s8.28-1.65,14.07,1.66,7.45,5.79,13.24,16.55.83,30.62-4.14,38.89S74.12,96.67,70.27,97.5s-13.8,0-13.8,0h-3A30.61,30.61,0,0,1,46,95.84c-2.49-.82-13.24-8.27-14.9-9.93S16.2,71.85,20.33,47,49.72,21.37,49.72,21.37Z"/><ellipse cx="42.75" cy="55.87" rx="3.5" ry="6.5"/><ellipse cx="75.25" cy="55.87" rx="3.5" ry="6.5"/><path class="cls-2" d="M53.25,82.52A20.79,20.79,0,0,0,60,84a16.43,16.43,0,0,0,6.25-1.48"/></g></svg>