<svg xmlns="http://www.w3.org/2000/svg" viewBox="0 0 128 128"><defs><style>.cls-1{fill:#4d4d4d;fill-opacity:0.5;}</style></defs><g id="Content"><path d="M64.94,98.87c-4,0-8.28-.35-8.55-.37h-3a31.15,31.15,0,0,1-7.77-1.71c-2.6-.86-13.49-8.37-15.29-10.17l-.13-.13C25.73,82,15.62,69.2,19.35,46.86c4.22-25.34,30.08-26.48,30.34-26.49H63.22A9.72,9.72,0,0,1,68.58,22c1.85-.3,9-1.2,14.31,1.85,6,3.42,7.67,5.88,13.63,16.94,6.14,11.41.55,32-4.16,39.89-5,8.25-17.54,16.91-21.88,17.84A29.7,29.7,0,0,1,64.94,98.87ZM49.72,22.37c-1,0-24.45,1.11-28.4,24.82-3.57,21.42,6,33.63,10.34,37.88l.14.14C33.38,86.78,44,94.12,46.3,94.9a30.4,30.4,0,0,0,7.14,1.6h3c.18,0,9.93.81,13.59,0,3.48-.74,15.7-8.78,20.58-16.91,4.51-7.52,9.9-27.16,4.12-37.91s-7.34-13-12.86-16.15S68.6,24,68.53,24l-.48.1-.37-.31a7.42,7.42,0,0,0-4.46-1.42Z"/><path class="cls-1" d="M47,37.5l.16.14c7.57,6.59,16.1,6.54,23.65-.14H47Z"/><path d="M58.91,44.05c-4.34,0-8.69-1.76-12.74-5.28L46,38.63l2-2.26.15.14c7,6.08,14.7,6,21.68-.13l2,2.24C67.71,42.24,63.31,44.05,58.91,44.05Z"/><path d="M98.5,20c-6.09,0-14.25-5.94-14.59-6.19l-1-.75,1-.82C84.15,12,91.21,6,98.5,6c7.11,0,17,3.91,17.37,4.07l1.41.56-1.07,1.08C115.87,12.05,107.81,20,98.5,20ZM86.19,13C88.56,14.52,94.27,18,98.5,18c6.52,0,12.61-4.52,15.11-6.64-3-1.09-10-3.36-15.11-3.36S88.33,11.36,86.19,13Z"/><path d="M59.86,38.72l-1.94-.5s.1-.36.29-1c.86-2.83,3.33-10,7.73-15.72a26.27,26.27,0,0,1,2.35-2.7C74.58,12.51,84.06,12,84.46,12l.09,2c-.09,0-9.12.48-14.84,6.21a22.7,22.7,0,0,0-2.18,2.5c-4.2,5.43-6.58,12.36-7.4,15.08C60,38.37,59.86,38.71,59.86,38.72Z"/><path d="M104.12,76l-2-.41a25.29,25.29,0,0,0,0-8.21c-.7-4.22-4.76-6.44-4.8-6.46l.94-1.76c.2.1,5,2.68,5.83,7.89A26.19,26.19,0,0,1,104.12,76Z"/><rect x="44.44" y="105" width="16.12" height="2" transform="translate(-59.19 144.95) rotate(-82.87)"/><rect x="65.5" y="97.78" width="2" height="18.44" transform="translate(-21.63 16.97) rotate(-12.53)"/><circle cx="16.5" cy="80" r="4"/><circle cx="102.5" cy="78" r="4"/><circle cx="51.5" cy="116" r="4"/><circle cx="68.5" cy="117" r="4"/><path d="M15.51,79.13c0-.32-1-7.88,0-11.67a22.42,22.42,0,0,1,3.65-7.09l1.56,1.25A20.82,20.82,0,0,0,17.46,68c-.93,3.4,0,10.81,0,10.88Z"/></g></svg>