<svg xmlns="http://www.w3.org/2000/svg" xmlns:xlink="http://www.w3.org/1999/xlink" viewBox="0 0 128 128"><defs><style>.cls-1{fill:url(#linear-gradient);}.cls-2{fill:none;stroke:#000;stroke-miterlimit:10;stroke-width:2px;}</style><linearGradient id="linear-gradient" x1="58.89" y1="97.87" x2="58.89" y2="21.37" gradientUnits="userSpaceOnUse"><stop offset="0" stop-color="#8bc34a"/><stop offset="0.86" stop-color="#333f50"/></linearGradient></defs><g id="Content"><path class="cls-1" d="M63.22,21.37A8.41,8.41,0,0,1,68.33,23s8.28-1.65,14.07,1.66,7.45,5.79,13.24,16.55.83,30.62-4.14,38.89S74.12,96.67,70.27,97.5s-13.8,0-13.8,0h-3A30.61,30.61,0,0,1,46,95.84c-2.49-.82-13.24-8.27-14.9-9.93S16.2,71.85,20.33,47,49.72,21.37,49.72,21.37Z"/><ellipse cx="42.75" cy="55.87" rx="3.5" ry="6.5"/><ellipse cx="75.25" cy="55.87" rx="3.5" ry="6.5"/><path class="cls-2" d="M53.25,82.52s3.12-3.4,6.31-3.4,6.69,3.4,6.69,3.4"/></g></svg>