<?xml version="1.0" standalone="no"?>
<!DOCTYPE svg PUBLIC "-//W3C//DTD SVG 1.1//EN" "http://www.w3.org/Graphics/SVG/1.1/DTD/svg11.dtd" >
<svg xmlns="http://www.w3.org/2000/svg">
<metadata>Generated by IcoMoon</metadata>
<defs>
<font id="green-line" horiz-adv-x="1024">
<font-face units-per-em="1024" ascent="960" descent="-64" />
<missing-glyph horiz-adv-x="1024" />
<glyph unicode="&#x20;" horiz-adv-x="512" d="" />
<glyph unicode="&#xe900;" glyph-name="advanced_tools" d="M787.44 664c2.24-8.48-2.88-17.28-11.36-19.6l-61.84-16.56c-1.36-0.32-2.72-0.56-4.080-0.56-0.32 0-0.56 0-0.88 0.080-3.040-0.24-6.16 0.48-8.96 2.080l-28.32 16.32v-24.32c0-3.040-2.4-5.44-5.44-5.44h-21.84c-20.32 0-36.72 16.4-36.72 36.72v11.28h-302.080c-1.6-3.6-3.44-6.96-5.68-10.16l151.2-261.84h52.56c35.2 0 64-28.8 64-64v-136h136c17.6 0 33.6-7.2 45.2-18.8s18.8-27.6 18.8-45.2c0-35.2-28.8-64-64-64h-384c-17.6 0-33.6 7.2-45.2 18.8s-18.8 27.6-18.8 45.2c0 32.48 24.56 59.52 56 63.52v136.48c0 35.2 28.8 64 64 64h1.6l-134 232c-37.36 0.24-67.6 30.64-67.6 68 0 37.52 30.48 68 68 68 24.32 0 45.6-12.8 57.68-32h306.32v11.28c0 20.32 16.4 36.72 36.72 36.72h21.84c3.040 0 5.44-2.4 5.44-5.44v-21.040l28.32 16.32c2.8 1.6 5.92 2.32 8.88 2.080 0.32 0.080 0.56 0.080 0.88 0.080 1.36 0 2.8-0.16 4.16-0.56l61.84-16.56c8.48-2.24 13.6-11.12 11.36-19.6-1.92-7.12-8.4-11.84-15.44-11.84-1.36 0-2.8 0.16-4.16 0.56l-56.72 15.2-39.12-22.64v-29.76l39.12-22.64 56.72 15.2c1.36 0.32 2.72 0.56 4.080 0.56 7.040 0 13.6-4.72 15.52-11.92z" />
<glyph unicode="&#xe901;" glyph-name="appliance" d="M765.52 832h-507.040c-36.56 0-66.48-29.92-66.48-66.48v-635.040c0-36.56 29.92-66.48 66.48-66.48h507.040c36.56 0 66.48 29.92 66.48 66.48v635.040c0 36.56-29.92 66.48-66.48 66.48zM616 768c17.68 0 32-14.32 32-32s-14.32-32-32-32-32 14.32-32 32c0 17.68 14.32 32 32 32zM768 194.48c0-36.56-29.92-66.48-66.48-66.48h-379.040c-36.56 0-66.48 29.92-66.48 66.48v379.040c0 36.56 29.92 66.48 66.48 66.48h379.040c36.56 0 66.48-29.92 66.48-66.48v-379.040zM736 704c-17.68 0-32 14.32-32 32s14.32 32 32 32 32-14.32 32-32c0-17.68-14.32-32-32-32zM672 384c0-88.366-71.634-160-160-160s-160 71.634-160 160c0 88.366 71.634 160 160 160s160-71.634 160-160z" />
<glyph unicode="&#xe902;" glyph-name="artisan" d="M512 384v0c-35.2 0-64 28.8-64 64v0c0 35.2 28.8 64 64 64v0c35.2 0 64-28.8 64-64v0c0-35.2-28.8-64-64-64zM526.72 441.76c-2.32-5.52-58.24-135.6-139.68-213.36-63.6-60.64-179.28-134.32-228.24-164.4h-30.8v18.64c34.48 20.96 169.12 104.24 236.96 168.96 76.64 73.040 131.76 201.36 132.32 202.64l29.44-12.48zM847.52 112.48v0c-6.24-6.24-16.4-6.24-22.64 0l-520.4 520.4c-6.24 6.24-6.24 16.4 0 22.64v0c6.24 6.24 16.4 6.24 22.64 0l520.4-520.4c6.24-6.24 6.24-16.4 0-22.64zM157.2 632.64l184.16-110.64c9.52-5.68 21.68-4.24 29.52 3.6l63.2 63.2c7.84 7.84 9.36 19.92 3.68 29.44l-109.92 184.8c-8.080 13.52-26.72 15.84-37.84 4.72l-137.36-137.36c-11.12-11.12-8.88-29.68 4.56-37.76z" />
<glyph unicode="&#xe903;" glyph-name="assembly" d="M512 384v0c-35.2 0-64 28.8-64 64v0c0 35.2 28.8 64 64 64v0c35.2 0 64-28.8 64-64v0c0-35.2-28.8-64-64-64zM526.72 441.76c-2.32-5.52-58.24-135.6-139.68-213.36-63.6-60.64-179.28-134.32-228.24-164.4h-30.8v18.64c34.48 20.96 169.12 104.24 236.96 168.96 76.64 73.040 131.76 201.36 132.32 202.64l29.44-12.48zM847.52 112.48v0c-6.24-6.24-16.4-6.24-22.64 0l-520.4 520.4c-6.24 6.24-6.24 16.4 0 22.64v0c6.24 6.24 16.4 6.24 22.64 0l520.4-520.4c6.24-6.24 6.24-16.4 0-22.64zM390.56 716l-146.56-146.56c-9.52-9.52-24.96-9.52-34.48 0l-56 56c-9.52 9.52-9.52 24.96 0 34.48l146.48 146.64c9.52 9.52 24.96 9.52 34.48 0l56-56c9.6-9.6 9.6-25.040 0.080-34.56z" />
<glyph unicode="&#xe904;" glyph-name="automobile" d="M832 456v-80c0-29.68-16.4-55.68-40.48-69.52-5.36 61.44-56.72 109.52-119.52 109.52-66.32 0-120-53.68-120-120h-90c0 66.32-53.68 120-120 120-60.56 0-110.72-44.88-118.8-103.28-19.040 14.72-31.2 37.6-31.2 63.28v80c0 42.48 33.52 77.44 75.44 79.92l12.64 88.56c4.56 31.84 31.84 55.52 64 55.52h258.4c23.2 0 44.64-12.48 56.16-32.56l54.080-94.64c3.12-5.44 5.36-11.12 6.8-16.8h32.48c44 0 80-36 80-80zM422 296c0-44.183-35.817-80-80-80s-80 35.817-80 80c0 44.183 35.817 80 80 80s80-35.817 80-80zM752 296c0-44.183-35.817-80-80-80s-80 35.817-80 80c0 44.183 35.817 80 80 80s80-35.817 80-80z" />
<glyph unicode="&#xe905;" glyph-name="baked" d="M782.48 720.56c45.28-45.28 90.48-90.48-181.040-362s-316.8-226.24-362-181.040c-46.24 46.24-40.8 133.52 5.52 228.8 34.080-8.24 102-64.8 102-64.8s-10 101.92-70 121.6c17.28 27.2 37.6 54.56 60.72 81.2 43.2-21.84 105.44-72.72 105.44-72.72s-15.76 96.64-53.12 127.44l-0.080 0.080c28.56 27.12 58.16 51.040 87.84 71.36 9.44-13.040 19.040-28.64 27.2-46.48 28.64-61.92 39.92-73.2 39.92-73.2s8 108.56-7.28 156.080c101.44 53.76 196 62.56 244.88 13.68z" />
<glyph unicode="&#xe906;" glyph-name="basic_tools" d="M783.68 128.24v0c-12.48-12.48-32.8-12.48-45.28 0l-497.76 497.76c-12.48 12.48-12.48 32.8 0 45.28v0c12.48 12.48 32.8 12.48 45.28 0l497.84-497.84c12.32-12.4 12.32-32.8-0.080-45.2zM231.2 118.8v0c-12.48 12.48-12.48 32.8 0 45.28l452.56 452.56c12.48 12.48 32.8 12.48 45.28 0v0c12.48-12.48 12.48-32.8 0-45.28l-452.56-452.56c-12.4-12.4-32.8-12.4-45.28 0zM396.96 660.56l-146.56-146.56c-9.52-9.52-24.96-9.52-34.48 0l-81.92 81.92c-9.52 9.52-9.52 24.96 0 34.48l146.56 146.56c9.52 9.52 24.96 9.52 34.48 0l81.92-81.92c9.52-9.52 9.52-24.96 0-34.48zM859.68 568c-50-50-131.040-50-181.040 0s-50 131.040 0 181.040c33.52 33.52 81.040 44.56 123.68 33.12l-89.76-89.76 22.64-67.92 67.92-22.64 89.68 89.68c11.44-42.56 0.32-90.080-33.12-123.52z" />
<glyph unicode="&#xe907;" glyph-name="chemicals" d="M701.36 95.76h-378.72c-8.72 0-16.72 4.64-21.040 12.16l-189.36 328c-4.32 7.52-4.32 16.8 0 24.32l189.36 328c4.32 7.52 12.4 12.16 21.040 12.16h378.72c8.72 0 16.72-4.64 21.040-12.16l189.36-328c4.32-7.52 4.32-16.8 0-24.32l-189.36-328c-4.32-7.6-12.4-12.16-21.040-12.16zM341.12 127.76h341.76c8.72 0 16.72 4.64 21.040 12.16l170.88 296c4.32 7.52 4.32 16.8 0 24.32l-170.88 296c-4.32 7.52-12.4 12.16-21.040 12.16h-341.76c-8.72 0-16.72-4.64-21.040-12.16l-170.88-296c-4.32-7.52-4.32-16.8 0-24.32l170.88-296c4.32-7.6 12.32-12.16 21.040-12.16zM624 176h-224c-8.8 0-16 7.2-16 16v0c0 8.8 7.2 16 16 16h224c8.8 0 16-7.2 16-16v0c0-8.8-7.2-16-16-16zM216 456v0c-7.68 4.4-10.24 14.24-5.84 21.84l127.92 220.32c4.4 7.68 14.24 10.24 21.84 5.84v0c7.68-4.4 10.24-14.24 5.84-21.84l-127.92-220.32c-4.4-7.68-14.16-10.24-21.84-5.84zM778.16 462l-120.16 212.16c-4.4 7.68-1.68 17.52 6 21.84v0c7.68 4.32 17.44 1.68 21.84-6l120.24-212.16c4.32-7.68 1.68-17.44-6-21.84v0c-7.76-4.32-17.52-1.68-21.92 6z" />
<glyph unicode="&#xe908;" glyph-name="circuit" d="M800 416c8.8 0 16.8 3.6 22.56 9.44 5.84 5.76 9.44 13.76 9.44 22.56 0 17.6-14.4 32-32 32h-32v64h32c8.8 0 16.8 3.6 22.56 9.44 5.84 5.76 9.44 13.76 9.44 22.56 0 17.6-14.4 32-32 32h-32v32c0 35.2-28.8 64-64 64h-384c-35.2 0-64-28.8-64-64v-32h-32c-8.8 0-16.8-3.6-22.56-9.44-5.84-5.76-9.44-13.76-9.44-22.56 0-17.6 14.4-32 32-32h32v-64h-32c-8.8 0-16.8-3.6-22.56-9.44-5.84-5.76-9.44-13.76-9.44-22.56 0-17.6 14.4-32 32-32h32v-64h-32c-8.8 0-16.8-3.6-22.56-9.44-5.84-5.76-9.44-13.76-9.44-22.56 0-17.6 14.4-32 32-32h32v-32c0-35.2 28.8-64 64-64h384c35.2 0 64 28.8 64 64v32h32c8.8 0 16.8 3.6 22.56 9.44 5.84 5.76 9.44 13.76 9.44 22.56 0 17.6-14.4 32-32 32h-32v64h32zM672 352c0-35.2-28.8-64-64-64h-192c-35.2 0-64 28.8-64 64v192c0 35.2 28.8 64 64 64h192c35.2 0 64-28.8 64-64v-192z" />
<glyph unicode="&#xe909;" glyph-name="cloth" d="M929.28 640l-226-576h-447.28c32.32 0 60.96 16 78.32 40.48 2.72 3.84 5.2 7.92 7.28 12.16l0.16 0.24 11.12 18.48 222.48 504.64h353.92zM296 152c0-12.96-3.040-25.12-8.56-35.92l-0.16-0.16c-1.76-3.52-3.84-6.96-6.080-10.16-14.4-20.4-38.24-33.76-65.2-33.76-44.24 0-80 35.76-80 80 0 6 0.64 11.84 1.92 17.36 0.32 1.76 0.72 3.44 1.28 4.96 2 7.12 5.040 13.84 8.88 19.92 14.080 22.72 39.28 37.76 67.92 37.76 23.52 0 44.72-10.16 59.36-26.32 12.88-14.16 20.64-33.040 20.64-53.68zM576 736c0-14.96-3.36-29.040-9.44-41.68-15.52-32.16-48.4-54.32-86.56-54.32-53.040 0-96 42.96-96 96 0 9.68 1.44 19.040 4.16 27.84 2.24 7.84 5.6 15.2 9.68 22l0.16 0.24c8 12.96 19.040 24 32 32 14.56 8.8 31.68 13.92 50 13.92 46.88 0 85.92-33.6 94.32-78 1.12-5.84 1.68-11.84 1.68-18zM302.32 104.48l7.28 12.16c-2.080-4.24-4.56-8.32-7.28-12.16zM567.2 694l-23.84-54-222.48-504.64-11.12-18.48c6.56 12.96 10.24 27.6 10.24 43.12 0 24.8-9.36 47.44-24.72 64.4-17.6 19.44-43.040 31.6-71.28 31.6-34.4 0-64.56-18.080-81.52-45.2l245.68 553.040c-2.72-8.8-4.16-18.16-4.16-27.84 0-53.040 42.96-96 96-96 38.16 0 71.040 22.16 86.56 54.32l0.64-0.32z" />
<glyph unicode="&#xe90a;" glyph-name="clothes" d="M120 576l200 128h64c0 0 59.12-96 128-96 59.44 0 128 96 128 96h63.76l193.52-128-62.24-128.4-140.24 58.72 9.2-442.32h-389.44l13.44 448-136-64.4-72 128.4z" />
<glyph unicode="&#xe90b;" glyph-name="coal" d="M141.36 496h741.28l-45.12-270.64c-3.2-19.28-19.84-33.36-39.28-33.36h-62.24c0 53.040-42.96 96-96 96s-96-42.96-96-96h-64c0 53.040-42.96 96-96 96s-96-42.96-96-96h-62.24c-19.44 0-36.080 14.080-39.28 33.36l-45.12 270.64zM888.24 529.52l-0.24-1.52h-752l-0.24 1.52c-4.080 24.32 14.72 46.48 39.36 46.48h673.76c24.64 0 43.44-22.16 39.36-46.48zM448 192c0-35.346-28.654-64-64-64s-64 28.654-64 64c0 35.346 28.654 64 64 64s64-28.654 64-64zM704 192c0-35.346-28.654-64-64-64s-64 28.654-64 64c0 35.346 28.654 64 64 64s64-28.654 64-64zM827.36 608h-630.72c9.52 23.52 32.48 40 59.36 40 4.48 0 8.8-0.48 12.96-1.28 18.24 39.44 54.32 68.96 97.84 78.16 19.12 62 76.88 107.12 145.2 107.12 47.84 0 90.48-22.080 118.32-56.72 3.2 0.48 6.4 0.72 9.68 0.72 35.36 0 64-28.64 64-64 0-1.84-0.080-3.68-0.24-5.44 27.44-9.52 49.28-31.36 58.8-58.8 1.76 0.16 3.6 0.24 5.44 0.24 26.88 0 49.84-16.48 59.36-40z" />
<glyph unicode="&#xe90c;" glyph-name="crop" d="M136.48 72.48v0c-6.24 6.24-6.24 16.4 0 22.64l520.4 520.4c6.24 6.24 16.4 6.24 22.64 0v0c6.24-6.24 6.24-16.4 0-22.64l-520.4-520.4c-6.24-6.24-16.4-6.24-22.64 0zM688 728c0-53.040-48-96-48-96s-48 42.96-48 96 48 96 48 96 48-42.96 48-96zM559.36 596.8c0-53.040-48-96-48-96s-48 42.96-48 96 48 96 48 96 48-42.96 48-96zM431.36 468.8c0-53.040-48-96-48-96s-48 42.96-48 96 48 96 48 96 48-42.96 48-96zM303.36 340.8c0-53.040-48-96-48-96s-48 42.96-48 96 48 96 48 96 48-42.96 48-96zM407.36 140.8c-53.040 0-96 48-96 48s42.96 48 96 48 96-48 96-48-43.040-48-96-48zM535.36 268.8c-53.040 0-96 48-96 48s42.96 48 96 48 96-48 96-48-43.040-48-96-48zM663.36 396.8c-53.040 0-96 48-96 48s42.96 48 96 48c53.040 0 96-48 96-48s-43.040-48-96-48zM791.36 524.8c-53.040 0-96 48-96 48s42.96 48 96 48c53.040 0 96-48 96-48s-43.040-48-96-48zM825.28 690c-37.52-37.52-101.84-33.92-101.84-33.92s-3.52 64.32 33.92 101.84 101.84 33.92 101.84 33.92 3.52-64.32-33.92-101.84z" />
<glyph unicode="&#xe90d;" glyph-name="dairy" d="M832 432.96h-640c0.88 0 7.28 130.48 36.24 171.68 62 88.56 159.44 106.24 159.44 106.24l444.32-277.92zM829.6 322.48v75.12h-89.28c6.080-10.4 9.6-22.48 9.6-35.44 0-39.12-31.68-70.88-70.88-70.88-39.12 0-70.88 31.68-70.88 70.88 0 12.96 3.44 25.040 9.6 35.44h-168.96c0-39.12-31.68-70.88-70.88-70.88s-70.88 31.68-70.88 70.88h-115.040v-212.56h637.6v67.84c-16.4 3.12-28.8 17.52-28.8 34.8s12.4 31.68 28.8 34.8zM510.8 229.28c-19.6 0-35.44 15.84-35.44 35.44s15.84 35.44 35.44 35.44 35.44-15.84 35.44-35.44c0-19.52-15.84-35.44-35.44-35.44z" />
<glyph unicode="&#xe90e;" glyph-name="electricity" d="M485.12 778.72l-161.2-322.96c-2-4 0.24-8.8 4.56-9.92l239.2-60.24c3.6-0.88 5.84-4.48 5.12-8.080l-51.36-264.96c-1.52-7.92 9.44-11.68 13.12-4.48l165.68 324.4c2 3.92-0.080 8.64-4.24 9.92l-233.84 67.92c-3.44 0.96-5.52 4.4-4.96 7.92l44.56 255.12c1.6 9.84-12.080 14.4-16.64 5.36z" />
<glyph unicode="&#xe90f;" glyph-name="electronic" d="M703.12 832h-382.24c-35.68 0-64.88-29.2-64.88-64.88v-638.24c0-35.68 29.2-64.88 64.88-64.88h382.24c35.68 0 64.88 29.2 64.88 64.88v638.24c0 35.68-29.2 64.88-64.88 64.88zM512 80c-26.48 0-48 21.52-48 48s21.52 48 48 48 48-21.52 48-48-21.52-48-48-48zM696 256.88c0-35.68-29.2-64.88-64.88-64.88h-254.24c-35.68 0-64.88 29.2-64.88 64.88v446.24c0 35.68 29.2 64.88 64.88 64.88h254.24c35.68 0 64.88-29.2 64.88-64.88v-446.24z" />
<glyph unicode="&#xe910;" glyph-name="factories" d="M864 448v384h-128v-384h-32l-192 128v-128l-192 128v-128l-192 128v-512h768v384h-32zM320 160h-128v192h128v-192zM512 160h-128v192h128v-192zM704 160h-128v192h128v-192z" />
<glyph unicode="&#xe911;" glyph-name="farming" d="M512 384v0c-35.2 0-64 28.8-64 64v0c0 35.2 28.8 64 64 64v0c35.2 0 64-28.8 64-64v0c0-35.2-28.8-64-64-64zM526.72 441.76c-2.32-5.52-58.24-135.6-139.68-213.36-63.6-60.64-179.28-134.32-228.24-164.4h-30.8v18.64c34.48 20.96 169.12 104.24 236.96 168.96 76.64 73.040 131.76 201.36 132.32 202.64l29.44-12.48zM847.52 112.48v0c-6.24-6.24-16.4-6.24-22.64 0l-520.4 520.4c-6.24 6.24-6.24 16.4 0 22.64v0c6.24 6.24 16.4 6.24 22.64 0l520.4-520.4c6.24-6.24 6.24-16.4 0-22.64zM190.72 661.68l74.96 74.96c24.64 24.64 52.72 45.44 83.44 61.68 32.24 17.040 72.96 35.040 102.64 36.080 3.84 0.16 7.68 0.16 11.52 0 36.16-1.040 48.8-48.080 19.28-68.96-0.4-0.24-0.8-0.56-1.2-0.8-38.64-27.52-96.56-85.52-96.56-85.52l-105.76-105.68c-14.72-14.72-38.64-14.72-53.44 0l-34.88 34.88c-14.72 14.72-14.72 38.64 0 53.36z" />
<glyph unicode="&#xe912;" glyph-name="flour" d="M728.64 672h-433.28c-21.6 0-39.36-17.76-39.36-39.36v-529.28c0-21.6 17.76-39.36 39.36-39.36h433.28c21.6 0 39.36 17.76 39.36 39.36v529.28c0 21.6-17.76 39.36-39.36 39.36zM604.080 516.64c33.68 33.68 91.44 30.48 91.44 30.48s3.2-57.84-30.48-91.52-91.44-30.48-91.44-30.48-3.2 57.84 30.48 91.52zM498.64 576c0 0 43.12-38.64 43.12-86.24s-43.12-86.24-43.12-86.24-43.12 38.64-43.12 86.24 43.12 86.24 43.12 86.24zM382.96 458.16c0 0 43.2-38.64 43.2-86.32 0-47.6-43.2-86.24-43.2-86.24s-43.12 38.64-43.12 86.24c0 47.68 43.12 86.32 43.12 86.32zM307.44 158.56c-5.6 5.6-5.6 14.72 0 20.32l218.32 218.32c5.6 5.6 14.72 5.6 20.32 0 2.8-2.8 4.16-6.48 4.16-10.16s-1.36-7.36-4.16-10.16l-218.32-218.32c-5.6-5.6-14.8-5.6-20.32 0zM519.52 192.24c-47.6 0-86.24 43.12-86.24 43.12s38.64 43.12 86.24 43.12c47.68 0 86.24-43.12 86.24-43.12s-38.56-43.12-86.24-43.12zM634.56 307.2c-47.68 0-86.24 43.12-86.24 43.12s38.56 43.12 86.24 43.12c47.6 0 86.24-43.12 86.24-43.12s-38.64-43.12-86.24-43.12zM704 768h-384c-17.6 0-32-14.4-32-32v0c0-17.6 14.4-32 32-32h384c17.6 0 32 14.4 32 32v0c0 17.6-14.4 32-32 32z" />
<glyph unicode="&#xe913;" glyph-name="forestry" d="M512 384v0c-35.2 0-64 28.8-64 64v0c0 35.2 28.8 64 64 64v0c35.2 0 64-28.8 64-64v0c0-35.2-28.8-64-64-64zM526.72 441.76c-2.32-5.52-58.24-135.6-139.68-213.36-63.6-60.64-179.28-134.32-228.24-164.4h-30.8v18.64c34.48 20.96 169.12 104.24 236.96 168.96 76.64 73.040 131.76 201.36 132.32 202.64l29.44-12.48zM847.52 112.48v0c-6.24-6.24-16.4-6.24-22.64 0l-520.4 520.4c-6.24 6.24-6.24 16.4 0 22.64v0c6.24 6.24 16.4 6.24 22.64 0l520.4-520.4c6.24-6.24 6.24-16.4 0-22.64zM202.080 604.48c-7.84 7.84-7.84 20.48 0 28.24l76.4 76.4c15.52 15.52 31.12 73.6 39.44 108.48 3.12 13.36 18.4 19.6 30 12.32 26.88-16.8 68.64-43.92 83.52-58.8 14.72-14.72 41.12-56.32 57.68-83.44 7.2-11.84 0.48-27.2-13.12-29.92-33.68-6.72-88.080-20.080-107.040-39.040-19.76-19.76-55.76-56.56-75.6-76.88-7.76-7.92-20.56-8-28.4-0.16l-62.88 62.8z" />
<glyph unicode="&#xe914;" glyph-name="fruit" d="M748.080 258c-8-82.88-80-174-136-182.32-56-8.24-128-16.56-160-8.24-32 8.24-168 66.24-176 165.68s48 190.56 88 240.32c40 49.68 40 124.24 80 157.44 32 26.48 69.2 31.84 82.72 32.88l50.88 139.28c2.24 6.16 9.12 9.36 15.36 7.12 4.8-1.76 7.84-6.4 7.84-11.28 0-1.36-0.24-2.72-0.72-4.080l-49.52-135.44c12.16-4.88 28.8-15.28 45.44-36.8 32-41.44 48-107.68 72-149.12s88-132.56 80-215.44zM361.92 800.96c0 0 77.36 39.84 127.12 21.68 49.84-18.24 53.2-87.6 53.2-87.6s-47.28-50.88-97.12-32.64c-49.76 18.16-83.2 98.56-83.2 98.56z" />
<glyph unicode="&#xe915;" glyph-name="furniture" d="M892.72 725.92l-18-36.080v-362.72c0-11.12-4.56-21.12-11.92-28.4-7.28-7.36-17.36-11.92-28.4-11.92-22.16 0-40.32 18.16-40.32 40.32v201.6l-31.84-63.68c-5.12-10.48-15.84-17.040-27.44-17.040h-21.36v-282.080c0-11.12-4.56-21.12-11.92-28.4-7.28-7.36-17.36-11.92-28.4-11.92-22.16 0-40.32 18.16-40.32 40.32v282.080h-201.36v-120.88c0-11.12-4.56-21.12-11.92-28.4-7.28-7.36-17.36-11.92-28.4-11.92-22.16 0-40.32 18.16-40.32 40.32v120.88h-80.56v-282.080c0-11.12-4.56-21.12-11.92-28.4-7.28-7.36-17.36-11.92-28.4-11.92-22.16 0-40.32 18.16-40.32 40.32v282.080h-30.96c-22.8 0-37.68 24.080-27.44 44.4l130.48 260.88c5.12 10.48 15.84 17.040 27.44 17.040h576.16c22.8 0.080 37.68-24 27.44-44.4z" />
<glyph unicode="&#xe916;" glyph-name="government" d="M896 64h-768l64 128h640zM256 672h128v-448h-128v448zM640 672h128v-448h-128v448zM448 672h128v-448h-128v448zM832 768v-64h-640v64l320 63.040z" />
<glyph unicode="&#xe917;" glyph-name="industrial_tools" d="M407.36 480h-110.72c-22.32 0-40.64 18.32-40.64 40.64v110.72c0 22.32 18.32 40.64 40.64 40.64h110.72c22.32 0 40.64-18.32 40.64-40.64v-110.72c0-22.32-18.32-40.64-40.64-40.64zM727.36 480h-110.72c-22.32 0-40.64 18.32-40.64 40.64v110.72c0 22.32 18.32 40.64 40.64 40.64h110.72c22.32 0 40.64-18.32 40.64-40.64v-110.72c0-22.32-18.32-40.64-40.64-40.64zM867.84 419.84c-17.44 17.36-41.44 28.16-67.84 28.16h-576c-52.8 0-96-43.2-96-96 0-26.4 10.8-50.4 28.16-67.84 17.44-17.36 41.44-28.16 67.84-28.16h32v-160c0-17.6 14.4-32 32-32s32 14.4 32 32v160h384v-160c0-17.6 14.4-32 32-32s32 14.4 32 32v160h32c52.8 0 96 43.2 96 96 0 26.4-10.8 50.4-28.16 67.84zM232 288c-35.36 0-64 28.64-64 64s28.64 64 64 64 64-28.64 64-64c0-35.36-28.64-64-64-64zM424 288c-35.36 0-64 28.64-64 64s28.64 64 64 64 64-28.64 64-64c0-35.36-28.64-64-64-64zM616 288c-35.36 0-64 28.64-64 64s28.64 64 64 64 64-28.64 64-64c0-35.36-28.64-64-64-64zM808 288c-35.36 0-64 28.64-64 64s28.64 64 64 64 64-28.64 64-64c0-35.36-28.64-64-64-64z" />
<glyph unicode="&#xe918;" glyph-name="luxury_food" d="M832 308h-640c0 165.92 126.32 302.4 288 318.4v25.6c0 17.6 14.4 32 32 32 8.8 0 16.8-3.6 22.56-9.44 5.84-5.76 9.44-13.76 9.44-22.56v-25.6c161.68-16 288-152.48 288-318.4zM864 212h-704c-17.6 0-32 14.4-32 32v0c0 17.6 14.4 32 32 32h704c17.6 0 32-14.4 32-32v0c0-17.6-14.4-32-32-32z" />
<glyph unicode="&#xe919;" glyph-name="luxury_furniture" d="M832 392c0-2.72-0.16-5.36-0.48-8h0.48c0-70.72-57.28-128-128-128v-32c0-8.8-3.6-16.8-9.44-22.56-5.76-5.84-13.76-9.44-22.56-9.44-17.6 0-32 14.4-32 32v32h-256v-32c0-8.8-3.6-16.8-9.44-22.56-5.76-5.84-13.76-9.44-22.56-9.44-17.6 0-32 14.4-32 32v32c-35.36 0-67.36 14.32-90.56 37.44-23.12 23.2-37.44 55.2-37.44 90.56h0.48c-0.32 2.64-0.48 5.28-0.48 8v56c0 35.2 28.8 64 64 64 17.6 0 33.6-7.2 45.2-18.8s18.8-27.6 18.8-45.2v-56c0-2.72-0.16-5.36-0.48-8h384.96c-0.32 2.64-0.48 5.28-0.48 8v56c0 35.2 28.8 64 64 64 17.6 0 33.6-7.2 45.2-18.8s18.8-27.6 18.8-45.2v-56zM768 608v-72h-38.24c-34-14.8-57.76-48.72-57.76-88v-32h-320v32c0 25.6-10 49.68-28.16 67.84-8.64 8.64-18.64 15.44-29.44 20.16h-38.4v72c0 52.8 43.2 96 96 96h320c52.8 0 96-43.2 96-96z" />
<glyph unicode="&#xe91a;" glyph-name="machine_part" d="M832.4 398.4v96l-71.36 12.96c-5.92 25.28-15.68 49.040-28.56 70.8l41.84 60.4-67.84 67.92-59.2-41.040c-22.64 14.080-47.68 24.72-74.32 31.2l-12.96 71.36h-96l-12.96-71.36c-25.2-6.080-48.96-16-70.64-29.040l-60.56 41.92-67.92-67.84 41.6-60.080c-13.28-21.68-23.44-45.52-29.76-70.88l-72.16-13.12v-96l71.36-12.96c6.16-26.080 16.32-50.56 29.76-72.88l-41.6-60.16 67.84-67.92 60 41.52c21.040-12.8 44.080-22.64 68.56-28.96l13.28-73.040h96l12.96 71.36c26.080 6 50.64 16 73.040 29.28l60-41.52 67.92 67.84-40.96 59.12c13.6 22.080 24 46.24 30.48 72l72.16 13.12zM512 272c-97.2 0-176 78.8-176 176s78.8 176 176 176 176-78.8 176-176c0-97.2-78.8-176-176-176z" />
<glyph unicode="&#xe91b;" glyph-name="markets" d="M192 448v-384h64v256h192v-256h384v384h-640zM768 192h-192v192h192v-192zM832 736h-640l-64-256h768zM192 832h640v-64h-640v64z" />
<glyph unicode="&#xe91c;" glyph-name="meat" d="M836 760c-1.52 0-3.040-0.080-4.56-0.24 0.4 2.72 0.56 5.44 0.56 8.24 0 35.36-28.64 64-64 64s-64-28.64-64-64c0-22.48 11.6-42.24 29.12-53.6l-51.76-51.76-53.68 53.68c-28.56 28.56-74.8 28.56-103.36 0l-280.64-280.64c-28.56-28.56-28.56-74.8 0-103.36l53.68-53.68-51.76-51.76c-11.36 17.52-31.12 29.12-53.6 29.12-35.36 0-64-28.64-64-64s28.64-64 64-64c2.8 0 5.52 0.16 8.24 0.56-0.16-1.52-0.24-3.040-0.24-4.56 0-33.12 26.88-60 60-60s60 26.88 60 60c0 23.44-13.44 43.76-33.12 53.6l55.76 55.76 53.68-53.68c28.56-28.56 74.8-28.56 103.36 0l280.64 280.64c28.56 28.56 28.56 74.8 0 103.36l-53.68 53.68 55.76 55.76c9.84-19.68 30.16-33.12 53.6-33.12 33.12 0 60 26.88 60 60s-26.88 60-60 60zM237.44 179.52c5.6 2.4 11.68 3.84 18 4.24-0.72-6.080-2.4-12-4.8-17.44l-13.2 13.2zM255.44 183.76c-0.72-6.080-2.4-12-4.8-17.44l-13.2 13.2c5.6 2.4 11.68 3.84 18 4.24z" />
<glyph unicode="&#xe91d;" glyph-name="metal" d="M144 79.36l58.48 238.16h292.32l61.44-238.16zM218.48 349.52l350.24 467.12h233.84l-291.76-467.12zM818.56 784.64l-291.76-467.12 61.44-238.16 291.76 467.12z" />
<glyph unicode="&#xe91e;" glyph-name="milk" d="M701.76 582.4l-53.52 153.6c-1.040 2.96-2.4 5.76-4 8.32 7.12 0.88 13.52 4.24 18.32 9.12 5.84 5.76 9.44 13.76 9.44 22.56 0 17.6-14.4 32-32 32h-256c-8.8 0-16.8-3.6-22.56-9.44-5.84-5.76-9.44-13.76-9.44-22.56 0-15.6 11.28-28.64 26.080-31.44-1.84-2.72-3.28-5.76-4.4-8.96l-51.6-153.36c-1.36-4.16-2.080-8.48-2.080-12.8v-465.44c0-22.080 17.92-40 40-40h304c22.080 0 40 17.92 40 40v465.2c0 4.48-0.72 8.96-2.24 13.2zM672 146.8c0-19.2-14.56-34.8-32.48-34.8h-247.040c-17.92 0-32.48 15.6-32.48 34.8v404.96c0 3.6 0.48 7.28 1.6 10.64 30.96-8.16 61.6-18.8 85.28-29.36 42.48-18.96 146.64 9.12 223.68 28.48 0.96-3.2 1.44-6.56 1.44-10v-404.72z" />
<glyph unicode="&#xe91f;" glyph-name="mineral" d="M143.36 496h741.28l-45.12-270.64c-3.2-19.28-19.84-33.36-39.28-33.36h-62.24c0 53.040-42.96 96-96 96s-96-42.96-96-96h-64c0 53.040-42.96 96-96 96s-96-42.96-96-96h-62.24c-19.44 0-36.080 14.080-39.28 33.36l-45.12 270.64zM890.24 529.52l-0.24-1.52h-752l-0.24 1.52c-4.080 24.32 14.72 46.48 39.36 46.48h673.76c24.64 0 43.44-22.16 39.36-46.48zM450 192c0-35.346-28.654-64-64-64s-64 28.654-64 64c0 35.346 28.654 64 64 64s64-28.654 64-64zM706 192c0-35.346-28.654-64-64-64s-64 28.654-64 64c0 35.346 28.654 64 64 64s64-28.654 64-64zM815.92 632.96l-12.72-24.96h-579.68l-14.24 50.4 130.96 160 161.040-56.080 12.56 24.64 204.88 28.56z" />
<glyph unicode="&#xe920;" glyph-name="mining" d="M582.24 757.2c14.16-4.24 12.4-24.88-2.32-26.24-99.92-9.76-191.12-48.64-260.88-118.4-57.68-57.68-94.24-130.080-110.64-209.92-2.88-14.16-23.36-14-26.32 0.16-23.44 110.56-0.72 218.4 72.24 291.44 80.96 81.040 204.96 100.16 327.92 62.96zM512 384v0c-35.2 0-64 28.8-64 64v0c0 35.2 28.8 64 64 64v0c35.2 0 64-28.8 64-64v0c0-35.2-28.8-64-64-64zM526.72 441.76c-2.32-5.52-58.24-135.6-139.68-213.36-63.6-60.64-179.28-134.32-228.24-164.4h-30.8v18.64c34.48 20.96 169.12 104.24 236.96 168.96 76.64 73.040 131.76 201.36 132.32 202.64l29.44-12.48zM847.52 112.48v0c-6.24-6.24-16.4-6.24-22.64 0l-520.4 520.4c-6.24 6.24-6.24 16.4 0 22.64v0c6.24 6.24 16.4 6.24 22.64 0l520.4-520.4c6.24-6.24 6.24-16.4 0-22.64z" />
<glyph unicode="&#xe921;" glyph-name="mobile_tools" d="M768 256v-64c0-23.76-13.12-44.56-32.4-55.6-4.24 49.12-45.36 87.6-95.6 87.6-53.040 0-96-42.96-96-96h-72c0 53.040-42.96 96-96 96-48.48 0-88.56-35.92-95.040-82.64-15.2 11.76-24.96 30.080-24.96 50.64v64c0 35.2 28.8 64 64 64h384c35.2 0 64-28.8 64-64zM316.080 328v-36c0-35.2 28.8-64 64-64h128c35.2 0 64 28.8 64 64v36c0 35.2-28.8 64-64 64h-128c-35.2 0-64-28.8-64-64zM463.76 377.76l-192 332.56c-8.8 15.28-28.4 20.56-43.68 11.68v0c-15.28-8.8-20.56-28.4-11.68-43.68l192-332.56c8.8-15.28 28.4-20.56 43.68-11.68v0c15.28 8.8 20.48 28.32 11.68 43.68zM244.080 664h368c17.68 0 32 14.32 32 32v0c0 17.68-14.32 32-32 32h-368c-17.68 0-32-14.32-32-32v0c0-17.68 14.32-32 32-32zM316.080 692c0-37.555-30.445-68-68-68s-68 30.445-68 68c0 37.555 30.445 68 68 68s68-30.445 68-68zM612.080 739.28v-86.64c0-20.24 16.4-36.72 36.72-36.72h21.92c2.96 0 5.44 2.4 5.44 5.44v149.2c0 2.96-2.4 5.44-5.44 5.44h-21.92c-20.32 0-36.72-16.4-36.72-36.72zM720.32 738.16l-55.44-32c-7.6-4.4-17.44-1.76-21.84 5.84v0c-4.4 7.6-1.76 17.44 5.84 21.84l55.44 32c7.6 4.4 17.44 1.76 21.84-5.84v0c4.4-7.6 1.76-17.44-5.84-21.84zM771.84 720l-61.84 16.56c-8.48 2.24-13.6 11.12-11.28 19.6v0c2.24 8.48 11.12 13.6 19.6 11.28l61.84-16.56c8.48-2.24 13.6-11.12 11.28-19.6v0c-2.24-8.48-11.040-13.6-19.6-11.28zM720.32 657.2l-55.44 32c-7.6 4.4-17.44 1.76-21.84-5.84v0c-4.4-7.6-1.76-17.44 5.84-21.84l55.44-32c7.6-4.4 17.44-1.76 21.84 5.84v0c4.4 7.6 1.76 17.44-5.84 21.84zM771.84 675.36l-61.84-16.56c-8.48-2.24-13.6-11.12-11.28-19.6v0c2.24-8.48 11.12-13.6 19.6-11.28l61.84 16.56c8.48 2.24 13.6 11.12 11.28 19.6v0c-2.24 8.48-11.040 13.52-19.6 11.28zM440 128c0-35.346-28.654-64-64-64s-64 28.654-64 64c0 35.346 28.654 64 64 64s64-28.654 64-64zM704 128c0-35.346-28.654-64-64-64s-64 28.654-64 64c0 35.346 28.654 64 64 64s64-28.654 64-64z" />
<glyph unicode="&#xe922;" glyph-name="motor" d="M600.32 704h-432.64c-21.84 0-39.68-17.84-39.68-39.68v-432.64c0-21.84 17.84-39.68 39.68-39.68h432.64c21.84 0 39.68 17.84 39.68 39.68v432.64c0 21.84-17.84 39.68-39.68 39.68zM463.6 441.68l-92.080-180.32c-2.080-4-8.16-1.92-7.28 2.48l28.56 147.28c0.4 2-0.88 4-2.88 4.48l-132.96 33.52c-2.4 0.56-3.6 3.28-2.48 5.44l89.6 179.52c2.48 5.040 10.16 2.48 9.2-3.040l-24.8-141.76c-0.32-2 0.88-3.84 2.72-4.4l130-37.76c2.32-0.64 3.52-3.28 2.4-5.44zM664.32 304h-64.72c-21.76 0-39.6 17.84-39.6 39.68v192.64c0 21.84 17.84 39.68 39.68 39.68h64.72c21.84 0 39.68-17.84 39.68-39.68v-192.72c-0.080-21.76-17.92-39.6-39.76-39.6zM624 448v0c0 17.6 14.4 32 32 32h208c17.6 0 32-14.4 32-32v0c0-17.6-14.4-32-32-32h-208c-17.6 0-32 14.4-32 32z" />
<glyph unicode="&#xe923;" glyph-name="oil" d="M512 832c-42.64 0-256-370.64-256-512s114.64-256 256-256 256 114.64 256 256c0 141.36-213.36 512-256 512zM675.68 216c-17.68-30.64-44.4-48.24-59.68-39.44-15.28 8.88-13.36 40.8 4.32 71.44s44.4 48.24 59.68 39.44c15.28-8.88 13.36-40.8-4.32-71.44z" />
<glyph unicode="&#xe924;" glyph-name="population" d="M810.56 333.76c0-13.28-10.72-24-24-24-13.2 0-24 10.72-24 24 0 9.040 5.040 16.8 12.32 20.88l-1.36 0.4c0 0 1.36 20.48 0 35.52-1.36 15.2-6.88 25.84-6.88 25.84-9.12-35.44-25.28-74.4-32.88-97.040-31.68-95.040-154.88-144-154.88-144s-4.32 0-11.84 0l9.44-60.48c10.64-2.4 18.64-11.84 18.64-23.28 0-13.28-10.8-24-24-24-13.28 0-24 10.72-24 24 0 8.24 4.16 15.52 10.48 19.84l-9.92 63.92h-82.64c-2.88 0-5.76 0.080-8.4 0.24l-10.48-52.4c8.56-3.6 14.56-12.16 14.56-22 0-13.28-10.72-24-24-24-13.2 0-24 10.72-24 24 0 9.6 5.68 17.84 13.84 21.68l10.88 54.4c-41.12 6.16-70.4 28.88-125.92 84.48-34.88 34.88-59.36 98-68.16 164.16 0 0-8.64-20.16-8.64-29.76 0-8.16-3.2-37.2-4.16-45.6 5.76-4.32 9.44-11.28 9.44-19.040 0-13.2-10.8-24-24-24-13.28 0-24 10.8-24 24 0 9.68 5.76 18.080 14.080 21.84 0.4 9.92 2.24 33.28 9.44 62 9.6 38.32 24.16 55.28 24.16 55.28l0.24-2.24c-1.44 47.44 5.76 93.68 23.6 129.28 48 96 163.12 96 163.12 96s41.28 0 80.080 0c4.56 11.76 14.16 31.52 30.32 42 2.24 1.44 4.4 2.88 6.56 4.24s4.24 2.64 6.32 3.92c17.68 10.72 30.32 17.040 30.32 17.040s9.6 57.52 48 67.12c38.4 9.6 115.12 0 134.32-9.6s57.6-28.8 57.6-28.8-48-38.32-67.2-47.92c-19.2-9.6-76.72-28.8-105.52-28.8 0 0-37.44 0-42.72 9.6s-14.88 19.2-14.88 19.2-6.88 0-19.92-8.080c-2.16-1.36-4.48-2.96-7.040-4.8-2.48-1.84-5.12-3.92-8-6.32-12.64-10.8-20.080-21.44-24-28.8 43.12-0.48 106.96-9.6 106.96-9.6s67.12-19.2 105.52-105.6c17.12-38.4 30-74.64 30.16-112.48 5.28-8.16 15.68-26.96 20.64-53.2 4.8-25.28 4.16-47.2 3.44-57.76 7.68-4 12.96-12 12.96-21.28z" />
<glyph unicode="&#xe925;" glyph-name="precious_metal" d="M495.52 323.44h-279.12l-55.84-227.44h393.68l-58.72 227.44zM425.68 109.6l-65.68 34.48-65.68-34.48 12.56 73.12-53.2 51.84 73.44 10.64 32.88 66.56 32.88-66.56 73.44-10.64-53.2-51.84 12.56-73.12zM231.68 354l334.48 446h223.28l-278.64-446zM804.72 769.44l-278.64-446 58.72-227.44 278.64 446z" />
<glyph unicode="&#xe926;" glyph-name="precious_mineral" d="M759.44 687.68l-23.28-79.68h-299.2l46.88 160.24 168.72 65.52zM411.52 717.2l0.4-1.28-50.56-107.92h-2.4l-103.84 55.6-0.48 1.28 19.2 40.96 98.16 32.56zM361.36 608l-0.48-1.040-1.92 1.040zM140.24 496l45.12-270.64c3.2-19.28 19.84-33.36 39.28-33.36h62.24c0 53.040 42.96 96 96 96s96-42.96 96-96h64c0 53.040 42.96 96 96 96s96-42.96 96-96h62.24c19.44 0 36.080 14.080 39.28 33.36l45.12 270.64h-741.28zM556 357.28l10.32-60.56-54.32 28.64-54.32-28.64 10.32 60.56-43.92 42.8 60.72 8.88 27.2 55.040 27.2-55.040 60.72-8.88-43.92-42.8zM887.12 529.52l-0.24-1.52h-752l-0.24 1.52c-4.080 24.32 14.72 46.48 39.36 46.48h673.76c24.64 0 43.44-22.16 39.36-46.48zM446.88 192c0-35.346-28.654-64-64-64s-64 28.654-64 64c0 35.346 28.654 64 64 64s64-28.654 64-64zM702.88 192c0-35.346-28.654-64-64-64s-64 28.654-64 64c0 35.346 28.654 64 64 64s64-28.654 64-64z" />
<glyph unicode="&#xe927;" glyph-name="processed_fruit" d="M258.32 613.28l59.28-527.92c1.36-12.16 11.68-21.36 23.92-21.36h340.080c12.24 0 22.48 9.2 23.92 21.36l59.52 527.92c1.6 14.24-9.52 26.72-23.92 26.72h-458.96c-14.32 0-25.44-12.48-23.84-26.72zM313.76 405.36l-19.36 176c-1.6 14.24 9.6 26.64 23.92 26.64h387.040c14.32 0 25.44-12.48 23.92-26.72l-19.68-175.92c-1.36-12.16-11.68-21.36-23.92-21.36h-348c-12.24 0-22.56 9.2-23.92 21.36zM491.84 272.64l-122.24 423.44c-0.24 0.96-0.64 1.84-1.12 2.72-4.48 8.88-7.44 23.6 2.88 36.8 9.040 11.52 18.88 15.040 24.48 16l223.36 89.28c8.24 3.28 17.52-0.72 20.8-8.88v0c3.28-8.24-0.72-17.52-8.88-20.8l-228.080-91.2h-1.84c-0.72-0.32-2.48-1.28-4.64-4.080-0.24-0.72 0.16-2.16 0.72-3.12l1.52-2.16 0.56-2.24 123.2-426.96c2.48-8.48-2.48-17.36-10.96-19.84v0c-8.48-2.4-17.36 2.56-19.76 11.040z" />
<glyph unicode="&#xe928;" glyph-name="processed_meat" d="M793.040 695.68c-1.6-1.44-3.28-2.64-5.12-3.6 25.6-17.92 40.88-47.52 40.88-78.64 0-12.88-2.64-26-8.24-38.64-33.12-75.040-89.84-177.2-178.8-260.8-82.4-77.36-182.56-134.88-255.12-170.64-42.88-21.12-93.2-7.36-119.92 29.2-0.32-0.64-0.64-1.36-1.040-2l-28-48.16c-9.040-15.52-31.28-16.080-41.12-1.040l-27.28 41.68c-9.84 15.040-0.4 35.2 17.44 37.2l55.36 6.48c3.040 0.4 6 0.16 8.72-0.56-10.88 43.44 9.84 89.28 50.8 109.44 23.44 11.52 50.32 25.76 78.4 42.56l90.56-72.4-43.36 102.4c22.8 15.52 45.44 32.64 66.72 51.2l90.64-72.4-56 105.28c17.12 18 32.56 37.040 46.32 56.24l80.64-43.6-53.36 85.12c17.76 29.28 31.76 57.6 42.56 82.080 18.64 42.16 64.24 65.2 108.88 55.12-0.4 1.36-0.64 2.72-0.8 4.16l-5.12 55.52c-1.68 17.84 16.080 31.2 32.8 24.72l46.4-18.080c16.8-6.56 20.8-28.4 7.52-40.48l-41.36-37.36z" />
<glyph unicode="&#xe929;" glyph-name="processed_vegetables" d="M704 736c0-35.346-85.961-64-192-64s-192 28.654-192 64c0 35.346 85.961 64 192 64s192-28.654 192-64zM512 640c-106 0-192 28.64-192 64v-576c0-35.36 86-64 192-64s192 28.64 192 64v576c0-35.36-86-64-192-64zM512 268c-57.44 0-104 37.6-104 84 0 27.52 16.4 51.92 41.68 67.2l-37.92 19.44 58.4 8.24 24.56 33.040 27.92-30.24 59.040-1.92-28.48-18.64c36.96-12.88 62.8-42.56 62.8-77.12 0-46.4-46.56-84-104-84z" />
<glyph unicode="&#xe92a;" glyph-name="processed_wood" d="M160 138.64h234.64v-58.64h-234.64v58.64zM872 800l-469.36-645.36h-53.92l163.28 284.96-204.8-284.96h-90.48l263.28 381.36-288.48-381.36h-23.52l469.36 645.36h42l-175.36-272 203.52 272h69.68l-232.8-368 265.36 368zM410.64 138.64l469.36 645.36v-58.64l-469.36-645.36z" />
<glyph unicode="&#xe92b;" glyph-name="resources" d="M454.8 64h109.040v296.48c0 0 96.88 0 121.6 41.2s16.48 98.8 16.48 98.8 74.080 32.96 74.080 82.4-16.48 57.68-32.96 65.92c-16.48 8.24-57.68 8.24-57.68 8.24s24.72 107.040-49.44 148.24-107.040 24.72-131.76 16.48-74.16-57.68-74.16-57.68-115.28 16.48-164.72-65.92 8.24-181.2 8.24-181.2-19.84-67.36 0-107.040c13.68-27.28 38.8-70.8 73.28-83.44 48.8-17.92 107.92 1.12 107.92 1.12v-263.6z" />
<glyph unicode="&#xe92c;" glyph-name="rock" d="M681.6 832l-165.84-331.6c-1.2-2.48-1.76-5.040-1.68-7.68l-270.24-270.24-122.16 225.2 126.32 384.32h433.6zM886.4 556.88l-246.4-492.88-376.16 133.2 282.24 282.24c0.16 0 0.4 0 0.56 0.080l339.76 77.36zM885.84 589.52l-326.88-74.4 153.040 306.16z" />
<glyph unicode="&#xe92d;" glyph-name="smart_appliance" d="M896 704.080v-384.16c0-35.2-28.72-63.92-63.92-63.92h-256.080l46.8-93.52c7.92-15.84-3.6-34.48-21.36-34.48h-178.4c-17.92 0-29.6 18.88-21.6 34.96l46.56 93.040h-256.080c-35.2 0-63.92 28.72-63.92 63.92v384.16c0 35.2 28.72 63.92 63.92 63.92h640.16c35.2 0 63.92-28.72 63.92-63.92z" />
<glyph unicode="&#xe92e;" glyph-name="technical" d="M348.48 792c50-50 50-131.040 0-181.040s-131.040-50-181.040 0c-33.52 33.52-44.56 81.040-33.12 123.68l89.68-89.68 67.92 22.64 22.64 67.92-89.76 89.6c42.64 11.44 90.16 0.4 123.68-33.12zM512 384v0c-35.2 0-64 28.8-64 64v0c0 35.2 28.8 64 64 64v0c35.2 0 64-28.8 64-64v0c0-35.2-28.8-64-64-64zM526.72 441.76c-2.32-5.52-58.24-135.6-139.68-213.36-63.6-60.64-179.28-134.32-228.24-164.4h-30.8v18.64c34.48 20.96 169.12 104.24 236.96 168.96 76.64 73.040 131.76 201.36 132.32 202.64l29.44-12.48zM847.52 112.48v0c-6.24-6.24-16.4-6.24-22.64 0l-520.4 520.4c-6.24 6.24-6.24 16.4 0 22.64v0c6.24 6.24 16.4 6.24 22.64 0l520.4-520.4c6.24-6.24 6.24-16.4 0-22.64z" />
<glyph unicode="&#xe92f;" glyph-name="technology" d="M608 800v-64h-64v-408l-79.040-104h-304.96v576zM896 64l-512-2.48 192 258.48v384h128v-384z" />
<glyph unicode="&#xe930;" glyph-name="wood" d="M625.2 766.080c-0.8-0.64-1.52-1.36-2.24-2.080l2.16 2.16 0.080-0.080zM806.16 585.12l-2.16-2.16c0.72 0.72 1.44 1.44 2.080 2.24l0.080-0.080zM420 318c-4.56 10-10.48 19.36-17.52 27.76-15.12 18.24-35.28 32.24-58.4 39.76-12.16 4.080-25.12 6.32-38.64 6.48h-1.44c-33.12 0-63.36-12.56-86.080-33.2-25.76-23.44-41.92-57.2-41.92-94.8 0-70.72 57.28-128 128-128 37.6 0 71.36 16.16 94.8 41.92 20.64 22.72 33.2 52.96 33.2 86.080 0 19.28-4.24 37.6-12 54zM368.96 207.76c-16.24-24.4-43.92-40.4-75.36-40.4-49.92 0-90.4 40.4-90.4 90.4 0 31.44 16.080 59.12 40.4 75.36 2.32 1.52 4.72 2.96 7.2 4.24 12.72 6.96 27.36 10.8 42.8 10.8 4.16 0 8.24-0.24 12.24-0.88 25.2-3.36 47.12-17.12 61.28-36.88 6.56-9.2 11.52-19.68 14.32-30.96 1.68-6.96 2.56-14.16 2.56-21.68 0-18.48-5.52-35.68-15.040-50zM296.4 310.56c-30.72 0-55.6-24.88-55.6-55.6s24.88-55.6 55.6-55.6c30.72 0 55.6 24.88 55.6 55.6s-24.88 55.6-55.6 55.6zM293.44 232c-14.32 0-25.84 11.6-25.84 25.84 0 14.32 11.52 25.92 25.84 25.92s25.92-11.6 25.92-25.92c0-14.24-11.6-25.84-25.92-25.84zM840 672c0-33.52-12.88-64-33.92-86.8-0.64-0.8-1.36-1.52-2.080-2.24l-156.96-156.96 22.16-109.44c1.76-8.64-3.84-17.12-12.48-18.88s-17.12 3.84-18.88 12.48l-18 88.64-221.040-220.88c20.64 22.72 33.2 52.96 33.2 86.080 0 19.28-4.24 37.6-12 54l378.16 378.16c3.12 3.12 4.72 7.2 4.72 11.36 0 4.080-1.6 8.16-4.72 11.28-6.24 6.24-16.4 6.24-22.64 0l-373.040-373.040c-15.12 18.24-35.28 32.24-58.4 39.76l354.16 354.16c3.2 3.12 4.72 7.2 4.72 11.28s-1.52 8.16-4.72 11.28c-6.24 6.32-16.32 6.32-22.56 0l-23.28-23.36-346.96-346.88h-1.44c-33.12 0-63.36-12.56-86.080-33.2l-0.080 0.080 405.12 405.12c0.72 0.72 1.44 1.44 2.24 2.080 22.8 21.040 53.28 33.92 86.8 33.92 70.72 0 128-57.28 128-128z" />
<glyph unicode="&#xe931;" glyph-name="wool" d="M896 448c0-150.96-87.12-281.6-213.84-344.32 94.72 106.88 170.32 257.44 213.68 355.2 0.080-3.6 0.16-7.28 0.16-10.88zM440.16 261.12c-31.040 18.32-185.68 112.080-309.76 229.92 6.32 56.72 24.96 109.6 53.2 156.080 125.040-143.84 318.88-264.4 371.52-295.92-0.4-0.4-0.72-0.8-1.12-1.2-32.96-35.28-72.4-64.56-113.84-88.88zM377.52 88.24h-0.080c-40.4 15.12-77.6 36.8-110.16 63.84 50.56 15.36 109.36 37.36 166.4 68.24 51.76 28.080 102.16 63.44 143.68 107.84 100.8 107.68 181.2 267.68 226.24 369.6 16-18.56 30.24-38.72 42.4-60.16-37.92-90.88-126.72-285.040-239.44-405.52-63.12-67.52-149.92-113.36-229.040-143.84zM202.080 674.72c31.36 42.88 71.44 78.96 117.6 105.76 127.52-135.040 306.48-244.88 350.8-271.2-28.24-46.96-59.76-93.2-93.68-133.52-42.080 24.96-249.84 152.24-374.72 298.96zM752.56 663.84c-29.12 17.36-135.040 82.080-238.96 168.16 103.44-0.4 197.28-41.68 266-108.72-7.76-17.84-16.8-37.92-27.040-59.44zM888.56 523.84c-36.24-87.92-126.64-288.48-242-411.76-11.92-12.72-24.56-24.64-37.92-35.84-30.88-8-63.28-12.24-96.64-12.24-29.28 0-57.76 3.28-85.12 9.52 71.52 31.36 145.68 75.44 203.040 136.72 107.6 115.040 192 289.6 234.96 389.44 10.4-24.080 18.4-49.52 23.68-75.84zM349.36 795.92c36.4 17.12 75.92 28.56 117.44 33.36 116.8-101.52 242.88-177.44 271.76-194.4-15.28-31.12-32.72-64.4-51.92-97.92-42.32 25.36-214.080 131.36-337.28 258.96zM407.76 243.2c-58.48-30.24-118.64-51.28-168.48-65.52-68.8 69.36-111.28 164.88-111.28 270.32v1.36c107.92-98.4 230.4-176.32 279.76-206.16z" />
<glyph unicode="" glyph-name="wool" d="M896 448c0-150.96-87.12-281.6-213.84-344.32 94.72 106.88 170.32 257.44 213.68 355.2 0.080-3.6 0.16-7.28 0.16-10.88zM440.16 261.12c-31.040 18.32-185.68 112.080-309.76 229.92 6.32 56.72 24.96 109.6 53.2 156.080 125.040-143.84 318.88-264.4 371.52-295.92-0.4-0.4-0.72-0.8-1.12-1.2-32.96-35.28-72.4-64.56-113.84-88.88zM377.52 88.24h-0.080c-40.4 15.12-77.6 36.8-110.16 63.84 50.56 15.36 109.36 37.36 166.4 68.24 51.76 28.080 102.16 63.44 143.68 107.84 100.8 107.68 181.2 267.68 226.24 369.6 16-18.56 30.24-38.72 42.4-60.16-37.92-90.88-126.72-285.040-239.44-405.52-63.12-67.52-149.92-113.36-229.040-143.84zM202.080 674.72c31.36 42.88 71.44 78.96 117.6 105.76 127.52-135.040 306.48-244.88 350.8-271.2-28.24-46.96-59.76-93.2-93.68-133.52-42.080 24.96-249.84 152.24-374.72 298.96zM752.56 663.84c-29.12 17.36-135.040 82.080-238.96 168.16 103.44-0.4 197.28-41.68 266-108.72-7.76-17.84-16.8-37.92-27.040-59.44zM888.56 523.84c-36.24-87.92-126.64-288.48-242-411.76-11.92-12.72-24.56-24.64-37.92-35.84-30.88-8-63.28-12.24-96.64-12.24-29.28 0-57.76 3.28-85.12 9.52 71.52 31.36 145.68 75.44 203.040 136.72 107.6 115.040 192 289.6 234.96 389.44 10.4-24.080 18.4-49.52 23.68-75.84zM349.36 795.92c36.4 17.12 75.92 28.56 117.44 33.36 116.8-101.52 242.88-177.44 271.76-194.4-15.28-31.12-32.72-64.4-51.92-97.92-42.32 25.36-214.080 131.36-337.28 258.96zM407.76 243.2c-58.48-30.24-118.64-51.28-168.48-65.52-68.8 69.36-111.28 164.88-111.28 270.32v1.36c107.92-98.4 230.4-176.32 279.76-206.16z" />
<glyph unicode="wool" glyph-name="wool" d="M896 448c0-150.96-87.12-281.6-213.84-344.32 94.72 106.88 170.32 257.44 213.68 355.2 0.080-3.6 0.16-7.28 0.16-10.88zM440.16 261.12c-31.040 18.32-185.68 112.080-309.76 229.92 6.32 56.72 24.96 109.6 53.2 156.080 125.040-143.84 318.88-264.4 371.52-295.92-0.4-0.4-0.72-0.8-1.12-1.2-32.96-35.28-72.4-64.56-113.84-88.88zM377.52 88.24h-0.080c-40.4 15.12-77.6 36.8-110.16 63.84 50.56 15.36 109.36 37.36 166.4 68.24 51.76 28.080 102.16 63.44 143.68 107.84 100.8 107.68 181.2 267.68 226.24 369.6 16-18.56 30.24-38.72 42.4-60.16-37.92-90.88-126.72-285.040-239.44-405.52-63.12-67.52-149.92-113.36-229.040-143.84zM202.080 674.72c31.36 42.88 71.44 78.96 117.6 105.76 127.52-135.040 306.48-244.88 350.8-271.2-28.24-46.96-59.76-93.2-93.68-133.52-42.080 24.96-249.84 152.24-374.72 298.96zM752.56 663.84c-29.12 17.36-135.040 82.080-238.96 168.16 103.44-0.4 197.28-41.68 266-108.72-7.76-17.84-16.8-37.92-27.040-59.44zM888.56 523.84c-36.24-87.92-126.64-288.48-242-411.76-11.92-12.72-24.56-24.64-37.92-35.84-30.88-8-63.28-12.24-96.64-12.24-29.28 0-57.76 3.28-85.12 9.52 71.52 31.36 145.68 75.44 203.040 136.72 107.6 115.040 192 289.6 234.96 389.44 10.4-24.080 18.4-49.52 23.68-75.84zM349.36 795.92c36.4 17.12 75.92 28.56 117.44 33.36 116.8-101.52 242.88-177.44 271.76-194.4-15.28-31.12-32.72-64.4-51.92-97.92-42.32 25.36-214.080 131.36-337.28 258.96zM407.76 243.2c-58.48-30.24-118.64-51.28-168.48-65.52-68.8 69.36-111.28 164.88-111.28 270.32v1.36c107.92-98.4 230.4-176.32 279.76-206.16z" />
<glyph unicode="wood" glyph-name="wood" d="M625.2 766.080c-0.8-0.64-1.52-1.36-2.24-2.080l2.16 2.16 0.080-0.080zM806.16 585.12l-2.16-2.16c0.72 0.72 1.44 1.44 2.080 2.24l0.080-0.080zM420 318c-4.56 10-10.48 19.36-17.52 27.76-15.12 18.24-35.28 32.24-58.4 39.76-12.16 4.080-25.12 6.32-38.64 6.48h-1.44c-33.12 0-63.36-12.56-86.080-33.2-25.76-23.44-41.92-57.2-41.92-94.8 0-70.72 57.28-128 128-128 37.6 0 71.36 16.16 94.8 41.92 20.64 22.72 33.2 52.96 33.2 86.080 0 19.28-4.24 37.6-12 54zM368.96 207.76c-16.24-24.4-43.92-40.4-75.36-40.4-49.92 0-90.4 40.4-90.4 90.4 0 31.44 16.080 59.12 40.4 75.36 2.32 1.52 4.72 2.96 7.2 4.24 12.72 6.96 27.36 10.8 42.8 10.8 4.16 0 8.24-0.24 12.24-0.88 25.2-3.36 47.12-17.12 61.28-36.88 6.56-9.2 11.52-19.68 14.32-30.96 1.68-6.96 2.56-14.16 2.56-21.68 0-18.48-5.52-35.68-15.040-50zM296.4 310.56c-30.72 0-55.6-24.88-55.6-55.6s24.88-55.6 55.6-55.6c30.72 0 55.6 24.88 55.6 55.6s-24.88 55.6-55.6 55.6zM293.44 232c-14.32 0-25.84 11.6-25.84 25.84 0 14.32 11.52 25.92 25.84 25.92s25.92-11.6 25.92-25.92c0-14.24-11.6-25.84-25.92-25.84zM840 672c0-33.52-12.88-64-33.92-86.8-0.64-0.8-1.36-1.52-2.080-2.24l-156.96-156.96 22.16-109.44c1.76-8.64-3.84-17.12-12.48-18.88s-17.12 3.84-18.88 12.48l-18 88.64-221.040-220.88c20.64 22.72 33.2 52.96 33.2 86.080 0 19.28-4.24 37.6-12 54l378.16 378.16c3.12 3.12 4.72 7.2 4.72 11.36 0 4.080-1.6 8.16-4.72 11.28-6.24 6.24-16.4 6.24-22.64 0l-373.040-373.040c-15.12 18.24-35.28 32.24-58.4 39.76l354.16 354.16c3.2 3.12 4.72 7.2 4.72 11.28s-1.52 8.16-4.72 11.28c-6.24 6.32-16.32 6.32-22.56 0l-23.28-23.36-346.96-346.88h-1.44c-33.12 0-63.36-12.56-86.080-33.2l-0.080 0.080 405.12 405.12c0.72 0.72 1.44 1.44 2.24 2.080 22.8 21.040 53.28 33.92 86.8 33.92 70.72 0 128-57.28 128-128z" />
<glyph unicode="textile" glyph-name="cloth" d="M929.28 640l-226-576h-447.28c32.32 0 60.96 16 78.32 40.48 2.72 3.84 5.2 7.92 7.28 12.16l0.16 0.24 11.12 18.48 222.48 504.64h353.92zM296 152c0-12.96-3.040-25.12-8.56-35.92l-0.16-0.16c-1.76-3.52-3.84-6.96-6.080-10.16-14.4-20.4-38.24-33.76-65.2-33.76-44.24 0-80 35.76-80 80 0 6 0.64 11.84 1.92 17.36 0.32 1.76 0.72 3.44 1.28 4.96 2 7.12 5.040 13.84 8.88 19.92 14.080 22.72 39.28 37.76 67.92 37.76 23.52 0 44.72-10.16 59.36-26.32 12.88-14.16 20.64-33.040 20.64-53.68zM576 736c0-14.96-3.36-29.040-9.44-41.68-15.52-32.16-48.4-54.32-86.56-54.32-53.040 0-96 42.96-96 96 0 9.68 1.44 19.040 4.16 27.84 2.24 7.84 5.6 15.2 9.68 22l0.16 0.24c8 12.96 19.040 24 32 32 14.56 8.8 31.68 13.92 50 13.92 46.88 0 85.92-33.6 94.32-78 1.12-5.84 1.68-11.84 1.68-18zM302.32 104.48l7.28 12.16c-2.080-4.24-4.56-8.32-7.28-12.16zM567.2 694l-23.84-54-222.48-504.64-11.12-18.48c6.56 12.96 10.24 27.6 10.24 43.12 0 24.8-9.36 47.44-24.72 64.4-17.6 19.44-43.040 31.6-71.28 31.6-34.4 0-64.56-18.080-81.52-45.2l245.68 553.040c-2.72-8.8-4.16-18.16-4.16-27.84 0-53.040 42.96-96 96-96 38.16 0 71.040 22.16 86.56 54.32l0.64-0.32z" />
<glyph unicode="technology" glyph-name="technology" d="M608 800v-64h-64v-408l-79.040-104h-304.96v576zM896 64l-512-2.48 192 258.48v384h128v-384z" />
<glyph unicode="technical" glyph-name="technical" d="M348.48 792c50-50 50-131.040 0-181.040s-131.040-50-181.040 0c-33.52 33.52-44.56 81.040-33.12 123.68l89.68-89.68 67.92 22.64 22.64 67.92-89.76 89.6c42.64 11.44 90.16 0.4 123.68-33.12zM512 384v0c-35.2 0-64 28.8-64 64v0c0 35.2 28.8 64 64 64v0c35.2 0 64-28.8 64-64v0c0-35.2-28.8-64-64-64zM526.72 441.76c-2.32-5.52-58.24-135.6-139.68-213.36-63.6-60.64-179.28-134.32-228.24-164.4h-30.8v18.64c34.48 20.96 169.12 104.24 236.96 168.96 76.64 73.040 131.76 201.36 132.32 202.64l29.44-12.48zM847.52 112.48v0c-6.24-6.24-16.4-6.24-22.64 0l-520.4 520.4c-6.24 6.24-6.24 16.4 0 22.64v0c6.24 6.24 16.4 6.24 22.64 0l520.4-520.4c6.24-6.24 6.24-16.4 0-22.64z" />
<glyph unicode="smart_appliance" glyph-name="smart_appliance" d="M896 704.080v-384.16c0-35.2-28.72-63.92-63.92-63.92h-256.080l46.8-93.52c7.92-15.84-3.6-34.48-21.36-34.48h-178.4c-17.92 0-29.6 18.88-21.6 34.96l46.56 93.040h-256.080c-35.2 0-63.92 28.72-63.92 63.92v384.16c0 35.2 28.72 63.92 63.92 63.92h640.16c35.2 0 63.92-28.72 63.92-63.92z" />
<glyph unicode="rock" glyph-name="rock" d="M681.6 832l-165.84-331.6c-1.2-2.48-1.76-5.040-1.68-7.68l-270.24-270.24-122.16 225.2 126.32 384.32h433.6zM886.4 556.88l-246.4-492.88-376.16 133.2 282.24 282.24c0.16 0 0.4 0 0.56 0.080l339.76 77.36zM885.84 589.52l-326.88-74.4 153.040 306.16z" />
<glyph unicode="resources" glyph-name="resources" d="M454.8 64h109.040v296.48c0 0 96.88 0 121.6 41.2s16.48 98.8 16.48 98.8 74.080 32.96 74.080 82.4-16.48 57.68-32.96 65.92c-16.48 8.24-57.68 8.24-57.68 8.24s24.72 107.040-49.44 148.24-107.040 24.72-131.76 16.48-74.16-57.68-74.16-57.68-115.28 16.48-164.72-65.92 8.24-181.2 8.24-181.2-19.84-67.36 0-107.040c13.68-27.28 38.8-70.8 73.28-83.44 48.8-17.92 107.92 1.12 107.92 1.12v-263.6z" />
<glyph unicode="processed_wood" glyph-name="processed_wood" d="M160 138.64h234.64v-58.64h-234.64v58.64zM872 800l-469.36-645.36h-53.92l163.28 284.96-204.8-284.96h-90.48l263.28 381.36-288.48-381.36h-23.52l469.36 645.36h42l-175.36-272 203.52 272h69.68l-232.8-368 265.36 368zM410.64 138.64l469.36 645.36v-58.64l-469.36-645.36z" />
<glyph unicode="processed_vegetables" glyph-name="processed_vegetables" d="M704 736c0-35.346-85.961-64-192-64s-192 28.654-192 64c0 35.346 85.961 64 192 64s192-28.654 192-64zM512 640c-106 0-192 28.64-192 64v-576c0-35.36 86-64 192-64s192 28.64 192 64v576c0-35.36-86-64-192-64zM512 268c-57.44 0-104 37.6-104 84 0 27.52 16.4 51.92 41.68 67.2l-37.92 19.44 58.4 8.24 24.56 33.040 27.92-30.24 59.040-1.92-28.48-18.64c36.96-12.88 62.8-42.56 62.8-77.12 0-46.4-46.56-84-104-84z" />
<glyph unicode="processed_meat" glyph-name="processed_meat" d="M793.040 695.68c-1.6-1.44-3.28-2.64-5.12-3.6 25.6-17.92 40.88-47.52 40.88-78.64 0-12.88-2.64-26-8.24-38.64-33.12-75.040-89.84-177.2-178.8-260.8-82.4-77.36-182.56-134.88-255.12-170.64-42.88-21.12-93.2-7.36-119.92 29.2-0.32-0.64-0.64-1.36-1.040-2l-28-48.16c-9.040-15.52-31.28-16.080-41.12-1.040l-27.28 41.68c-9.84 15.040-0.4 35.2 17.44 37.2l55.36 6.48c3.040 0.4 6 0.16 8.72-0.56-10.88 43.44 9.84 89.28 50.8 109.44 23.44 11.52 50.32 25.76 78.4 42.56l90.56-72.4-43.36 102.4c22.8 15.52 45.44 32.64 66.72 51.2l90.64-72.4-56 105.28c17.12 18 32.56 37.040 46.32 56.24l80.64-43.6-53.36 85.12c17.76 29.28 31.76 57.6 42.56 82.080 18.64 42.16 64.24 65.2 108.88 55.12-0.4 1.36-0.64 2.72-0.8 4.16l-5.12 55.52c-1.68 17.84 16.080 31.2 32.8 24.72l46.4-18.080c16.8-6.56 20.8-28.4 7.52-40.48l-41.36-37.36z" />
<glyph unicode="processed_fruit" glyph-name="processed_fruit" d="M258.32 613.28l59.28-527.92c1.36-12.16 11.68-21.36 23.92-21.36h340.080c12.24 0 22.48 9.2 23.92 21.36l59.52 527.92c1.6 14.24-9.52 26.72-23.92 26.72h-458.96c-14.32 0-25.44-12.48-23.84-26.72zM313.76 405.36l-19.36 176c-1.6 14.24 9.6 26.64 23.92 26.64h387.040c14.32 0 25.44-12.48 23.92-26.72l-19.68-175.92c-1.36-12.16-11.68-21.36-23.92-21.36h-348c-12.24 0-22.56 9.2-23.92 21.36zM491.84 272.64l-122.24 423.44c-0.24 0.96-0.64 1.84-1.12 2.72-4.48 8.88-7.44 23.6 2.88 36.8 9.040 11.52 18.88 15.040 24.48 16l223.36 89.28c8.24 3.28 17.52-0.72 20.8-8.88v0c3.28-8.24-0.72-17.52-8.88-20.8l-228.080-91.2h-1.84c-0.72-0.32-2.48-1.28-4.64-4.080-0.24-0.72 0.16-2.16 0.72-3.12l1.52-2.16 0.56-2.24 123.2-426.96c2.48-8.48-2.48-17.36-10.96-19.84v0c-8.48-2.4-17.36 2.56-19.76 11.040z" />
<glyph unicode="precious_mineral" glyph-name="precious_mineral" d="M759.44 687.68l-23.28-79.68h-299.2l46.88 160.24 168.72 65.52zM411.52 717.2l0.4-1.28-50.56-107.92h-2.4l-103.84 55.6-0.48 1.28 19.2 40.96 98.16 32.56zM361.36 608l-0.48-1.040-1.92 1.040zM140.24 496l45.12-270.64c3.2-19.28 19.84-33.36 39.28-33.36h62.24c0 53.040 42.96 96 96 96s96-42.96 96-96h64c0 53.040 42.96 96 96 96s96-42.96 96-96h62.24c19.44 0 36.080 14.080 39.28 33.36l45.12 270.64h-741.28zM556 357.28l10.32-60.56-54.32 28.64-54.32-28.64 10.32 60.56-43.92 42.8 60.72 8.88 27.2 55.040 27.2-55.040 60.72-8.88-43.92-42.8zM887.12 529.52l-0.24-1.52h-752l-0.24 1.52c-4.080 24.32 14.72 46.48 39.36 46.48h673.76c24.64 0 43.44-22.16 39.36-46.48zM446.88 192c0-35.346-28.654-64-64-64s-64 28.654-64 64c0 35.346 28.654 64 64 64s64-28.654 64-64zM702.88 192c0-35.346-28.654-64-64-64s-64 28.654-64 64c0 35.346 28.654 64 64 64s64-28.654 64-64z" />
<glyph unicode="precious_metal" glyph-name="precious_metal" d="M495.52 323.44h-279.12l-55.84-227.44h393.68l-58.72 227.44zM425.68 109.6l-65.68 34.48-65.68-34.48 12.56 73.12-53.2 51.84 73.44 10.64 32.88 66.56 32.88-66.56 73.44-10.64-53.2-51.84 12.56-73.12zM231.68 354l334.48 446h223.28l-278.64-446zM804.72 769.44l-278.64-446 58.72-227.44 278.64 446z" />
<glyph unicode="population" glyph-name="population" d="M810.56 333.76c0-13.28-10.72-24-24-24-13.2 0-24 10.72-24 24 0 9.040 5.040 16.8 12.32 20.88l-1.36 0.4c0 0 1.36 20.48 0 35.52-1.36 15.2-6.88 25.84-6.88 25.84-9.12-35.44-25.28-74.4-32.88-97.040-31.68-95.040-154.88-144-154.88-144s-4.32 0-11.84 0l9.44-60.48c10.64-2.4 18.64-11.84 18.64-23.28 0-13.28-10.8-24-24-24-13.28 0-24 10.72-24 24 0 8.24 4.16 15.52 10.48 19.84l-9.92 63.92h-82.64c-2.88 0-5.76 0.080-8.4 0.24l-10.48-52.4c8.56-3.6 14.56-12.16 14.56-22 0-13.28-10.72-24-24-24-13.2 0-24 10.72-24 24 0 9.6 5.68 17.84 13.84 21.68l10.88 54.4c-41.12 6.16-70.4 28.88-125.92 84.48-34.88 34.88-59.36 98-68.16 164.16 0 0-8.64-20.16-8.64-29.76 0-8.16-3.2-37.2-4.16-45.6 5.76-4.32 9.44-11.28 9.44-19.040 0-13.2-10.8-24-24-24-13.28 0-24 10.8-24 24 0 9.68 5.76 18.080 14.080 21.84 0.4 9.92 2.24 33.28 9.44 62 9.6 38.32 24.16 55.28 24.16 55.28l0.24-2.24c-1.44 47.44 5.76 93.68 23.6 129.28 48 96 163.12 96 163.12 96s41.28 0 80.080 0c4.56 11.76 14.16 31.52 30.32 42 2.24 1.44 4.4 2.88 6.56 4.24s4.24 2.64 6.32 3.92c17.68 10.72 30.32 17.040 30.32 17.040s9.6 57.52 48 67.12c38.4 9.6 115.12 0 134.32-9.6s57.6-28.8 57.6-28.8-48-38.32-67.2-47.92c-19.2-9.6-76.72-28.8-105.52-28.8 0 0-37.44 0-42.72 9.6s-14.88 19.2-14.88 19.2-6.88 0-19.92-8.080c-2.16-1.36-4.48-2.96-7.040-4.8-2.48-1.84-5.12-3.92-8-6.32-12.64-10.8-20.080-21.44-24-28.8 43.12-0.48 106.96-9.6 106.96-9.6s67.12-19.2 105.52-105.6c17.12-38.4 30-74.64 30.16-112.48 5.28-8.16 15.68-26.96 20.64-53.2 4.8-25.28 4.16-47.2 3.44-57.76 7.68-4 12.96-12 12.96-21.28z" />
<glyph unicode="oil" glyph-name="oil" d="M512 832c-42.64 0-256-370.64-256-512s114.64-256 256-256 256 114.64 256 256c0 141.36-213.36 512-256 512zM675.68 216c-17.68-30.64-44.4-48.24-59.68-39.44-15.28 8.88-13.36 40.8 4.32 71.44s44.4 48.24 59.68 39.44c15.28-8.88 13.36-40.8-4.32-71.44z" />
<glyph unicode="motor" glyph-name="motor" d="M600.32 704h-432.64c-21.84 0-39.68-17.84-39.68-39.68v-432.64c0-21.84 17.84-39.68 39.68-39.68h432.64c21.84 0 39.68 17.84 39.68 39.68v432.64c0 21.84-17.84 39.68-39.68 39.68zM463.6 441.68l-92.080-180.32c-2.080-4-8.16-1.92-7.28 2.48l28.56 147.28c0.4 2-0.88 4-2.88 4.48l-132.96 33.52c-2.4 0.56-3.6 3.28-2.48 5.44l89.6 179.52c2.48 5.040 10.16 2.48 9.2-3.040l-24.8-141.76c-0.32-2 0.88-3.84 2.72-4.4l130-37.76c2.32-0.64 3.52-3.28 2.4-5.44zM664.32 304h-64.72c-21.76 0-39.6 17.84-39.6 39.68v192.64c0 21.84 17.84 39.68 39.68 39.68h64.72c21.84 0 39.68-17.84 39.68-39.68v-192.72c-0.080-21.76-17.92-39.6-39.76-39.6zM624 448v0c0 17.6 14.4 32 32 32h208c17.6 0 32-14.4 32-32v0c0-17.6-14.4-32-32-32h-208c-17.6 0-32 14.4-32 32z" />
<glyph unicode="mobile_tools" glyph-name="mobile_tools" d="M768 256v-64c0-23.76-13.12-44.56-32.4-55.6-4.24 49.12-45.36 87.6-95.6 87.6-53.040 0-96-42.96-96-96h-72c0 53.040-42.96 96-96 96-48.48 0-88.56-35.92-95.040-82.64-15.2 11.76-24.96 30.080-24.96 50.64v64c0 35.2 28.8 64 64 64h384c35.2 0 64-28.8 64-64zM316.080 328v-36c0-35.2 28.8-64 64-64h128c35.2 0 64 28.8 64 64v36c0 35.2-28.8 64-64 64h-128c-35.2 0-64-28.8-64-64zM463.76 377.76l-192 332.56c-8.8 15.28-28.4 20.56-43.68 11.68v0c-15.28-8.8-20.56-28.4-11.68-43.68l192-332.56c8.8-15.28 28.4-20.56 43.68-11.68v0c15.28 8.8 20.48 28.32 11.68 43.68zM244.080 664h368c17.68 0 32 14.32 32 32v0c0 17.68-14.32 32-32 32h-368c-17.68 0-32-14.32-32-32v0c0-17.68 14.32-32 32-32zM316.080 692c0-37.555-30.445-68-68-68s-68 30.445-68 68c0 37.555 30.445 68 68 68s68-30.445 68-68zM612.080 739.28v-86.64c0-20.24 16.4-36.72 36.72-36.72h21.92c2.96 0 5.44 2.4 5.44 5.44v149.2c0 2.96-2.4 5.44-5.44 5.44h-21.92c-20.32 0-36.72-16.4-36.72-36.72zM720.32 738.16l-55.44-32c-7.6-4.4-17.44-1.76-21.84 5.84v0c-4.4 7.6-1.76 17.44 5.84 21.84l55.44 32c7.6 4.4 17.44 1.76 21.84-5.84v0c4.4-7.6 1.76-17.44-5.84-21.84zM771.84 720l-61.84 16.56c-8.48 2.24-13.6 11.12-11.28 19.6v0c2.24 8.48 11.12 13.6 19.6 11.28l61.84-16.56c8.48-2.24 13.6-11.12 11.28-19.6v0c-2.24-8.48-11.040-13.6-19.6-11.28zM720.32 657.2l-55.44 32c-7.6 4.4-17.44 1.76-21.84-5.84v0c-4.4-7.6-1.76-17.44 5.84-21.84l55.44-32c7.6-4.4 17.44-1.76 21.84 5.84v0c4.4 7.6 1.76 17.44-5.84 21.84zM771.84 675.36l-61.84-16.56c-8.48-2.24-13.6-11.12-11.28-19.6v0c2.24-8.48 11.12-13.6 19.6-11.28l61.84 16.56c8.48 2.24 13.6 11.12 11.28 19.6v0c-2.24 8.48-11.040 13.52-19.6 11.28zM440 128c0-35.346-28.654-64-64-64s-64 28.654-64 64c0 35.346 28.654 64 64 64s64-28.654 64-64zM704 128c0-35.346-28.654-64-64-64s-64 28.654-64 64c0 35.346 28.654 64 64 64s64-28.654 64-64z" />
<glyph unicode="mining" glyph-name="mining" d="M582.24 757.2c14.16-4.24 12.4-24.88-2.32-26.24-99.92-9.76-191.12-48.64-260.88-118.4-57.68-57.68-94.24-130.080-110.64-209.92-2.88-14.16-23.36-14-26.32 0.16-23.44 110.56-0.72 218.4 72.24 291.44 80.96 81.040 204.96 100.16 327.92 62.96zM512 384v0c-35.2 0-64 28.8-64 64v0c0 35.2 28.8 64 64 64v0c35.2 0 64-28.8 64-64v0c0-35.2-28.8-64-64-64zM526.72 441.76c-2.32-5.52-58.24-135.6-139.68-213.36-63.6-60.64-179.28-134.32-228.24-164.4h-30.8v18.64c34.48 20.96 169.12 104.24 236.96 168.96 76.64 73.040 131.76 201.36 132.32 202.64l29.44-12.48zM847.52 112.48v0c-6.24-6.24-16.4-6.24-22.64 0l-520.4 520.4c-6.24 6.24-6.24 16.4 0 22.64v0c6.24 6.24 16.4 6.24 22.64 0l520.4-520.4c6.24-6.24 6.24-16.4 0-22.64z" />
<glyph unicode="mineral" glyph-name="mineral" d="M143.36 496h741.28l-45.12-270.64c-3.2-19.28-19.84-33.36-39.28-33.36h-62.24c0 53.040-42.96 96-96 96s-96-42.96-96-96h-64c0 53.040-42.96 96-96 96s-96-42.96-96-96h-62.24c-19.44 0-36.080 14.080-39.28 33.36l-45.12 270.64zM890.24 529.52l-0.24-1.52h-752l-0.24 1.52c-4.080 24.32 14.72 46.48 39.36 46.48h673.76c24.64 0 43.44-22.16 39.36-46.48zM450 192c0-35.346-28.654-64-64-64s-64 28.654-64 64c0 35.346 28.654 64 64 64s64-28.654 64-64zM706 192c0-35.346-28.654-64-64-64s-64 28.654-64 64c0 35.346 28.654 64 64 64s64-28.654 64-64zM815.92 632.96l-12.72-24.96h-579.68l-14.24 50.4 130.96 160 161.040-56.080 12.56 24.64 204.88 28.56z" />
<glyph unicode="milk" glyph-name="milk" d="M701.76 582.4l-53.52 153.6c-1.040 2.96-2.4 5.76-4 8.32 7.12 0.88 13.52 4.24 18.32 9.12 5.84 5.76 9.44 13.76 9.44 22.56 0 17.6-14.4 32-32 32h-256c-8.8 0-16.8-3.6-22.56-9.44-5.84-5.76-9.44-13.76-9.44-22.56 0-15.6 11.28-28.64 26.080-31.44-1.84-2.72-3.28-5.76-4.4-8.96l-51.6-153.36c-1.36-4.16-2.080-8.48-2.080-12.8v-465.44c0-22.080 17.92-40 40-40h304c22.080 0 40 17.92 40 40v465.2c0 4.48-0.72 8.96-2.24 13.2zM672 146.8c0-19.2-14.56-34.8-32.48-34.8h-247.040c-17.92 0-32.48 15.6-32.48 34.8v404.96c0 3.6 0.48 7.28 1.6 10.64 30.96-8.16 61.6-18.8 85.28-29.36 42.48-18.96 146.64 9.12 223.68 28.48 0.96-3.2 1.44-6.56 1.44-10v-404.72z" />
<glyph unicode="metal" glyph-name="metal" d="M144 79.36l58.48 238.16h292.32l61.44-238.16zM218.48 349.52l350.24 467.12h233.84l-291.76-467.12zM818.56 784.64l-291.76-467.12 61.44-238.16 291.76 467.12z" />
<glyph unicode="meat" glyph-name="meat" d="M836 760c-1.52 0-3.040-0.080-4.56-0.24 0.4 2.72 0.56 5.44 0.56 8.24 0 35.36-28.64 64-64 64s-64-28.64-64-64c0-22.48 11.6-42.24 29.12-53.6l-51.76-51.76-53.68 53.68c-28.56 28.56-74.8 28.56-103.36 0l-280.64-280.64c-28.56-28.56-28.56-74.8 0-103.36l53.68-53.68-51.76-51.76c-11.36 17.52-31.12 29.12-53.6 29.12-35.36 0-64-28.64-64-64s28.64-64 64-64c2.8 0 5.52 0.16 8.24 0.56-0.16-1.52-0.24-3.040-0.24-4.56 0-33.12 26.88-60 60-60s60 26.88 60 60c0 23.44-13.44 43.76-33.12 53.6l55.76 55.76 53.68-53.68c28.56-28.56 74.8-28.56 103.36 0l280.64 280.64c28.56 28.56 28.56 74.8 0 103.36l-53.68 53.68 55.76 55.76c9.84-19.68 30.16-33.12 53.6-33.12 33.12 0 60 26.88 60 60s-26.88 60-60 60zM237.44 179.52c5.6 2.4 11.68 3.84 18 4.24-0.72-6.080-2.4-12-4.8-17.44l-13.2 13.2zM255.44 183.76c-0.72-6.080-2.4-12-4.8-17.44l-13.2 13.2c5.6 2.4 11.68 3.84 18 4.24z" />
<glyph unicode="markets" glyph-name="markets" d="M192 448v-384h64v256h192v-256h384v384h-640zM768 192h-192v192h192v-192zM832 736h-640l-64-256h768zM192 832h640v-64h-640v64z" />
<glyph unicode="machine_part" glyph-name="machine_part" d="M832.4 398.4v96l-71.36 12.96c-5.92 25.28-15.68 49.040-28.56 70.8l41.84 60.4-67.84 67.92-59.2-41.040c-22.64 14.080-47.68 24.72-74.32 31.2l-12.96 71.36h-96l-12.96-71.36c-25.2-6.080-48.96-16-70.64-29.040l-60.56 41.92-67.92-67.84 41.6-60.080c-13.28-21.68-23.44-45.52-29.76-70.88l-72.16-13.12v-96l71.36-12.96c6.16-26.080 16.32-50.56 29.76-72.88l-41.6-60.16 67.84-67.92 60 41.52c21.040-12.8 44.080-22.64 68.56-28.96l13.28-73.040h96l12.96 71.36c26.080 6 50.64 16 73.040 29.28l60-41.52 67.92 67.84-40.96 59.12c13.6 22.080 24 46.24 30.48 72l72.16 13.12zM512 272c-97.2 0-176 78.8-176 176s78.8 176 176 176 176-78.8 176-176c0-97.2-78.8-176-176-176z" />
<glyph unicode="luxury_furniture" glyph-name="luxury_furniture" d="M832 392c0-2.72-0.16-5.36-0.48-8h0.48c0-70.72-57.28-128-128-128v-32c0-8.8-3.6-16.8-9.44-22.56-5.76-5.84-13.76-9.44-22.56-9.44-17.6 0-32 14.4-32 32v32h-256v-32c0-8.8-3.6-16.8-9.44-22.56-5.76-5.84-13.76-9.44-22.56-9.44-17.6 0-32 14.4-32 32v32c-35.36 0-67.36 14.32-90.56 37.44-23.12 23.2-37.44 55.2-37.44 90.56h0.48c-0.32 2.64-0.48 5.28-0.48 8v56c0 35.2 28.8 64 64 64 17.6 0 33.6-7.2 45.2-18.8s18.8-27.6 18.8-45.2v-56c0-2.72-0.16-5.36-0.48-8h384.96c-0.32 2.64-0.48 5.28-0.48 8v56c0 35.2 28.8 64 64 64 17.6 0 33.6-7.2 45.2-18.8s18.8-27.6 18.8-45.2v-56zM768 608v-72h-38.24c-34-14.8-57.76-48.72-57.76-88v-32h-320v32c0 25.6-10 49.68-28.16 67.84-8.64 8.64-18.64 15.44-29.44 20.16h-38.4v72c0 52.8 43.2 96 96 96h320c52.8 0 96-43.2 96-96z" />
<glyph unicode="luxury_food" glyph-name="luxury_food" d="M832 308h-640c0 165.92 126.32 302.4 288 318.4v25.6c0 17.6 14.4 32 32 32 8.8 0 16.8-3.6 22.56-9.44 5.84-5.76 9.44-13.76 9.44-22.56v-25.6c161.68-16 288-152.48 288-318.4zM864 212h-704c-17.6 0-32 14.4-32 32v0c0 17.6 14.4 32 32 32h704c17.6 0 32-14.4 32-32v0c0-17.6-14.4-32-32-32z" />
<glyph unicode="industrial_tools" glyph-name="industrial_tools" d="M407.36 480h-110.72c-22.32 0-40.64 18.32-40.64 40.64v110.72c0 22.32 18.32 40.64 40.64 40.64h110.72c22.32 0 40.64-18.32 40.64-40.64v-110.72c0-22.32-18.32-40.64-40.64-40.64zM727.36 480h-110.72c-22.32 0-40.64 18.32-40.64 40.64v110.72c0 22.32 18.32 40.64 40.64 40.64h110.72c22.32 0 40.64-18.32 40.64-40.64v-110.72c0-22.32-18.32-40.64-40.64-40.64zM867.84 419.84c-17.44 17.36-41.44 28.16-67.84 28.16h-576c-52.8 0-96-43.2-96-96 0-26.4 10.8-50.4 28.16-67.84 17.44-17.36 41.44-28.16 67.84-28.16h32v-160c0-17.6 14.4-32 32-32s32 14.4 32 32v160h384v-160c0-17.6 14.4-32 32-32s32 14.4 32 32v160h32c52.8 0 96 43.2 96 96 0 26.4-10.8 50.4-28.16 67.84zM232 288c-35.36 0-64 28.64-64 64s28.64 64 64 64 64-28.64 64-64c0-35.36-28.64-64-64-64zM424 288c-35.36 0-64 28.64-64 64s28.64 64 64 64 64-28.64 64-64c0-35.36-28.64-64-64-64zM616 288c-35.36 0-64 28.64-64 64s28.64 64 64 64 64-28.64 64-64c0-35.36-28.64-64-64-64zM808 288c-35.36 0-64 28.64-64 64s28.64 64 64 64 64-28.64 64-64c0-35.36-28.64-64-64-64z" />
<glyph unicode="government" glyph-name="government" d="M896 64h-768l64 128h640zM256 672h128v-448h-128v448zM640 672h128v-448h-128v448zM448 672h128v-448h-128v448zM832 768v-64h-640v64l320 63.040z" />
<glyph unicode="furniture" glyph-name="furniture" d="M892.72 725.92l-18-36.080v-362.72c0-11.12-4.56-21.12-11.92-28.4-7.28-7.36-17.36-11.92-28.4-11.92-22.16 0-40.32 18.16-40.32 40.32v201.6l-31.84-63.68c-5.12-10.48-15.84-17.040-27.44-17.040h-21.36v-282.080c0-11.12-4.56-21.12-11.92-28.4-7.28-7.36-17.36-11.92-28.4-11.92-22.16 0-40.32 18.16-40.32 40.32v282.080h-201.36v-120.88c0-11.12-4.56-21.12-11.92-28.4-7.28-7.36-17.36-11.92-28.4-11.92-22.16 0-40.32 18.16-40.32 40.32v120.88h-80.56v-282.080c0-11.12-4.56-21.12-11.92-28.4-7.28-7.36-17.36-11.92-28.4-11.92-22.16 0-40.32 18.16-40.32 40.32v282.080h-30.96c-22.8 0-37.68 24.080-27.44 44.4l130.48 260.88c5.12 10.48 15.84 17.040 27.44 17.040h576.16c22.8 0.080 37.68-24 27.44-44.4z" />
<glyph unicode="fruit" glyph-name="fruit" d="M748.080 258c-8-82.88-80-174-136-182.32-56-8.24-128-16.56-160-8.24-32 8.24-168 66.24-176 165.68s48 190.56 88 240.32c40 49.68 40 124.24 80 157.44 32 26.48 69.2 31.84 82.72 32.88l50.88 139.28c2.24 6.16 9.12 9.36 15.36 7.12 4.8-1.76 7.84-6.4 7.84-11.28 0-1.36-0.24-2.72-0.72-4.080l-49.52-135.44c12.16-4.88 28.8-15.28 45.44-36.8 32-41.44 48-107.68 72-149.12s88-132.56 80-215.44zM361.92 800.96c0 0 77.36 39.84 127.12 21.68 49.84-18.24 53.2-87.6 53.2-87.6s-47.28-50.88-97.12-32.64c-49.76 18.16-83.2 98.56-83.2 98.56z" />
<glyph unicode="forestry" glyph-name="forestry" d="M512 384v0c-35.2 0-64 28.8-64 64v0c0 35.2 28.8 64 64 64v0c35.2 0 64-28.8 64-64v0c0-35.2-28.8-64-64-64zM526.72 441.76c-2.32-5.52-58.24-135.6-139.68-213.36-63.6-60.64-179.28-134.32-228.24-164.4h-30.8v18.64c34.48 20.96 169.12 104.24 236.96 168.96 76.64 73.040 131.76 201.36 132.32 202.64l29.44-12.48zM847.52 112.48v0c-6.24-6.24-16.4-6.24-22.64 0l-520.4 520.4c-6.24 6.24-6.24 16.4 0 22.64v0c6.24 6.24 16.4 6.24 22.64 0l520.4-520.4c6.24-6.24 6.24-16.4 0-22.64zM202.080 604.48c-7.84 7.84-7.84 20.48 0 28.24l76.4 76.4c15.52 15.52 31.12 73.6 39.44 108.48 3.12 13.36 18.4 19.6 30 12.32 26.88-16.8 68.64-43.92 83.52-58.8 14.72-14.72 41.12-56.32 57.68-83.44 7.2-11.84 0.48-27.2-13.12-29.92-33.68-6.72-88.080-20.080-107.040-39.040-19.76-19.76-55.76-56.56-75.6-76.88-7.76-7.92-20.56-8-28.4-0.16l-62.88 62.8z" />
<glyph unicode="flour" glyph-name="flour" d="M728.64 672h-433.28c-21.6 0-39.36-17.76-39.36-39.36v-529.28c0-21.6 17.76-39.36 39.36-39.36h433.28c21.6 0 39.36 17.76 39.36 39.36v529.28c0 21.6-17.76 39.36-39.36 39.36zM604.080 516.64c33.68 33.68 91.44 30.48 91.44 30.48s3.2-57.84-30.48-91.52-91.44-30.48-91.44-30.48-3.2 57.84 30.48 91.52zM498.64 576c0 0 43.12-38.64 43.12-86.24s-43.12-86.24-43.12-86.24-43.12 38.64-43.12 86.24 43.12 86.24 43.12 86.24zM382.96 458.16c0 0 43.2-38.64 43.2-86.32 0-47.6-43.2-86.24-43.2-86.24s-43.12 38.64-43.12 86.24c0 47.68 43.12 86.32 43.12 86.32zM307.44 158.56c-5.6 5.6-5.6 14.72 0 20.32l218.32 218.32c5.6 5.6 14.72 5.6 20.32 0 2.8-2.8 4.16-6.48 4.16-10.16s-1.36-7.36-4.16-10.16l-218.32-218.32c-5.6-5.6-14.8-5.6-20.32 0zM519.52 192.24c-47.6 0-86.24 43.12-86.24 43.12s38.64 43.12 86.24 43.12c47.68 0 86.24-43.12 86.24-43.12s-38.56-43.12-86.24-43.12zM634.56 307.2c-47.68 0-86.24 43.12-86.24 43.12s38.56 43.12 86.24 43.12c47.6 0 86.24-43.12 86.24-43.12s-38.64-43.12-86.24-43.12zM704 768h-384c-17.6 0-32-14.4-32-32v0c0-17.6 14.4-32 32-32h384c17.6 0 32 14.4 32 32v0c0 17.6-14.4 32-32 32z" />
<glyph unicode="farming" glyph-name="farming" d="M512 384v0c-35.2 0-64 28.8-64 64v0c0 35.2 28.8 64 64 64v0c35.2 0 64-28.8 64-64v0c0-35.2-28.8-64-64-64zM526.72 441.76c-2.32-5.52-58.24-135.6-139.68-213.36-63.6-60.64-179.28-134.32-228.24-164.4h-30.8v18.64c34.48 20.96 169.12 104.24 236.96 168.96 76.64 73.040 131.76 201.36 132.32 202.64l29.44-12.48zM847.52 112.48v0c-6.24-6.24-16.4-6.24-22.64 0l-520.4 520.4c-6.24 6.24-6.24 16.4 0 22.64v0c6.24 6.24 16.4 6.24 22.64 0l520.4-520.4c6.24-6.24 6.24-16.4 0-22.64zM190.72 661.68l74.96 74.96c24.64 24.64 52.72 45.44 83.44 61.68 32.24 17.040 72.96 35.040 102.64 36.080 3.84 0.16 7.68 0.16 11.52 0 36.16-1.040 48.8-48.080 19.28-68.96-0.4-0.24-0.8-0.56-1.2-0.8-38.64-27.52-96.56-85.52-96.56-85.52l-105.76-105.68c-14.72-14.72-38.64-14.72-53.44 0l-34.88 34.88c-14.72 14.72-14.72 38.64 0 53.36z" />
<glyph unicode="factory" glyph-name="factories" d="M864 448v384h-128v-384h-32l-192 128v-128l-192 128v-128l-192 128v-512h768v384h-32zM320 160h-128v192h128v-192zM512 160h-128v192h128v-192zM704 160h-128v192h128v-192z" />
<glyph unicode="electronic" glyph-name="electronic" d="M703.12 832h-382.24c-35.68 0-64.88-29.2-64.88-64.88v-638.24c0-35.68 29.2-64.88 64.88-64.88h382.24c35.68 0 64.88 29.2 64.88 64.88v638.24c0 35.68-29.2 64.88-64.88 64.88zM512 80c-26.48 0-48 21.52-48 48s21.52 48 48 48 48-21.52 48-48-21.52-48-48-48zM696 256.88c0-35.68-29.2-64.88-64.88-64.88h-254.24c-35.68 0-64.88 29.2-64.88 64.88v446.24c0 35.68 29.2 64.88 64.88 64.88h254.24c35.68 0 64.88-29.2 64.88-64.88v-446.24z" />
<glyph unicode="electricity" glyph-name="electricity" d="M485.12 778.72l-161.2-322.96c-2-4 0.24-8.8 4.56-9.92l239.2-60.24c3.6-0.88 5.84-4.48 5.12-8.080l-51.36-264.96c-1.52-7.92 9.44-11.68 13.12-4.48l165.68 324.4c2 3.92-0.080 8.64-4.24 9.92l-233.84 67.92c-3.44 0.96-5.52 4.4-4.96 7.92l44.56 255.12c1.6 9.84-12.080 14.4-16.64 5.36z" />
<glyph unicode="dairy" glyph-name="dairy" d="M832 432.96h-640c0.88 0 7.28 130.48 36.24 171.68 62 88.56 159.44 106.24 159.44 106.24l444.32-277.92zM829.6 322.48v75.12h-89.28c6.080-10.4 9.6-22.48 9.6-35.44 0-39.12-31.68-70.88-70.88-70.88-39.12 0-70.88 31.68-70.88 70.88 0 12.96 3.44 25.040 9.6 35.44h-168.96c0-39.12-31.68-70.88-70.88-70.88s-70.88 31.68-70.88 70.88h-115.040v-212.56h637.6v67.84c-16.4 3.12-28.8 17.52-28.8 34.8s12.4 31.68 28.8 34.8zM510.8 229.28c-19.6 0-35.44 15.84-35.44 35.44s15.84 35.44 35.44 35.44 35.44-15.84 35.44-35.44c0-19.52-15.84-35.44-35.44-35.44z" />
<glyph unicode="crop" glyph-name="crop" d="M136.48 72.48v0c-6.24 6.24-6.24 16.4 0 22.64l520.4 520.4c6.24 6.24 16.4 6.24 22.64 0v0c6.24-6.24 6.24-16.4 0-22.64l-520.4-520.4c-6.24-6.24-16.4-6.24-22.64 0zM688 728c0-53.040-48-96-48-96s-48 42.96-48 96 48 96 48 96 48-42.96 48-96zM559.36 596.8c0-53.040-48-96-48-96s-48 42.96-48 96 48 96 48 96 48-42.96 48-96zM431.36 468.8c0-53.040-48-96-48-96s-48 42.96-48 96 48 96 48 96 48-42.96 48-96zM303.36 340.8c0-53.040-48-96-48-96s-48 42.96-48 96 48 96 48 96 48-42.96 48-96zM407.36 140.8c-53.040 0-96 48-96 48s42.96 48 96 48 96-48 96-48-43.040-48-96-48zM535.36 268.8c-53.040 0-96 48-96 48s42.96 48 96 48 96-48 96-48-43.040-48-96-48zM663.36 396.8c-53.040 0-96 48-96 48s42.96 48 96 48c53.040 0 96-48 96-48s-43.040-48-96-48zM791.36 524.8c-53.040 0-96 48-96 48s42.96 48 96 48c53.040 0 96-48 96-48s-43.040-48-96-48zM825.28 690c-37.52-37.52-101.84-33.92-101.84-33.92s-3.52 64.32 33.92 101.84 101.84 33.92 101.84 33.92 3.52-64.32-33.92-101.84z" />
<glyph unicode="coal" glyph-name="coal" d="M141.36 496h741.28l-45.12-270.64c-3.2-19.28-19.84-33.36-39.28-33.36h-62.24c0 53.040-42.96 96-96 96s-96-42.96-96-96h-64c0 53.040-42.96 96-96 96s-96-42.96-96-96h-62.24c-19.44 0-36.080 14.080-39.28 33.36l-45.12 270.64zM888.24 529.52l-0.24-1.52h-752l-0.24 1.52c-4.080 24.32 14.72 46.48 39.36 46.48h673.76c24.64 0 43.44-22.16 39.36-46.48zM448 192c0-35.346-28.654-64-64-64s-64 28.654-64 64c0 35.346 28.654 64 64 64s64-28.654 64-64zM704 192c0-35.346-28.654-64-64-64s-64 28.654-64 64c0 35.346 28.654 64 64 64s64-28.654 64-64zM827.36 608h-630.72c9.52 23.52 32.48 40 59.36 40 4.48 0 8.8-0.48 12.96-1.28 18.24 39.44 54.32 68.96 97.84 78.16 19.12 62 76.88 107.12 145.2 107.12 47.84 0 90.48-22.080 118.32-56.72 3.2 0.48 6.4 0.72 9.68 0.72 35.36 0 64-28.64 64-64 0-1.84-0.080-3.68-0.24-5.44 27.44-9.52 49.28-31.36 58.8-58.8 1.76 0.16 3.6 0.24 5.44 0.24 26.88 0 49.84-16.48 59.36-40z" />
<glyph unicode="clothes" glyph-name="clothes" d="M120 576l200 128h64c0 0 59.12-96 128-96 59.44 0 128 96 128 96h63.76l193.52-128-62.24-128.4-140.24 58.72 9.2-442.32h-389.44l13.44 448-136-64.4-72 128.4z" />
<glyph unicode="circuit" glyph-name="circuit" d="M800 416c8.8 0 16.8 3.6 22.56 9.44 5.84 5.76 9.44 13.76 9.44 22.56 0 17.6-14.4 32-32 32h-32v64h32c8.8 0 16.8 3.6 22.56 9.44 5.84 5.76 9.44 13.76 9.44 22.56 0 17.6-14.4 32-32 32h-32v32c0 35.2-28.8 64-64 64h-384c-35.2 0-64-28.8-64-64v-32h-32c-8.8 0-16.8-3.6-22.56-9.44-5.84-5.76-9.44-13.76-9.44-22.56 0-17.6 14.4-32 32-32h32v-64h-32c-8.8 0-16.8-3.6-22.56-9.44-5.84-5.76-9.44-13.76-9.44-22.56 0-17.6 14.4-32 32-32h32v-64h-32c-8.8 0-16.8-3.6-22.56-9.44-5.84-5.76-9.44-13.76-9.44-22.56 0-17.6 14.4-32 32-32h32v-32c0-35.2 28.8-64 64-64h384c35.2 0 64 28.8 64 64v32h32c8.8 0 16.8 3.6 22.56 9.44 5.84 5.76 9.44 13.76 9.44 22.56 0 17.6-14.4 32-32 32h-32v64h32zM672 352c0-35.2-28.8-64-64-64h-192c-35.2 0-64 28.8-64 64v192c0 35.2 28.8 64 64 64h192c35.2 0 64-28.8 64-64v-192z" />
<glyph unicode="chemicals" glyph-name="chemicals" d="M701.36 95.76h-378.72c-8.72 0-16.72 4.64-21.040 12.16l-189.36 328c-4.32 7.52-4.32 16.8 0 24.32l189.36 328c4.32 7.52 12.4 12.16 21.040 12.16h378.72c8.72 0 16.72-4.64 21.040-12.16l189.36-328c4.32-7.52 4.32-16.8 0-24.32l-189.36-328c-4.32-7.6-12.4-12.16-21.040-12.16zM341.12 127.76h341.76c8.72 0 16.72 4.64 21.040 12.16l170.88 296c4.32 7.52 4.32 16.8 0 24.32l-170.88 296c-4.32 7.52-12.4 12.16-21.040 12.16h-341.76c-8.72 0-16.72-4.64-21.040-12.16l-170.88-296c-4.32-7.52-4.32-16.8 0-24.32l170.88-296c4.32-7.6 12.32-12.16 21.040-12.16zM624 176h-224c-8.8 0-16 7.2-16 16v0c0 8.8 7.2 16 16 16h224c8.8 0 16-7.2 16-16v0c0-8.8-7.2-16-16-16zM216 456v0c-7.68 4.4-10.24 14.24-5.84 21.84l127.92 220.32c4.4 7.68 14.24 10.24 21.84 5.84v0c7.68-4.4 10.24-14.24 5.84-21.84l-127.92-220.32c-4.4-7.68-14.16-10.24-21.84-5.84zM778.16 462l-120.16 212.16c-4.4 7.68-1.68 17.52 6 21.84v0c7.68 4.32 17.44 1.68 21.84-6l120.24-212.16c4.32-7.68 1.68-17.44-6-21.84v0c-7.76-4.32-17.52-1.68-21.92 6z" />
<glyph unicode="basic_tools" glyph-name="basic_tools" d="M783.68 128.24v0c-12.48-12.48-32.8-12.48-45.28 0l-497.76 497.76c-12.48 12.48-12.48 32.8 0 45.28v0c12.48 12.48 32.8 12.48 45.28 0l497.84-497.84c12.32-12.4 12.32-32.8-0.080-45.2zM231.2 118.8v0c-12.48 12.48-12.48 32.8 0 45.28l452.56 452.56c12.48 12.48 32.8 12.48 45.28 0v0c12.48-12.48 12.48-32.8 0-45.28l-452.56-452.56c-12.4-12.4-32.8-12.4-45.28 0zM396.96 660.56l-146.56-146.56c-9.52-9.52-24.96-9.52-34.48 0l-81.92 81.92c-9.52 9.52-9.52 24.96 0 34.48l146.56 146.56c9.52 9.52 24.96 9.52 34.48 0l81.92-81.92c9.52-9.52 9.52-24.96 0-34.48zM859.68 568c-50-50-131.040-50-181.040 0s-50 131.040 0 181.040c33.52 33.52 81.040 44.56 123.68 33.12l-89.76-89.76 22.64-67.92 67.92-22.64 89.68 89.68c11.44-42.56 0.32-90.080-33.12-123.52z" />
<glyph unicode="baked" glyph-name="baked" d="M782.48 720.56c45.28-45.28 90.48-90.48-181.040-362s-316.8-226.24-362-181.040c-46.24 46.24-40.8 133.52 5.52 228.8 34.080-8.24 102-64.8 102-64.8s-10 101.92-70 121.6c17.28 27.2 37.6 54.56 60.72 81.2 43.2-21.84 105.44-72.72 105.44-72.72s-15.76 96.64-53.12 127.44l-0.080 0.080c28.56 27.12 58.16 51.040 87.84 71.36 9.44-13.040 19.040-28.64 27.2-46.48 28.64-61.92 39.92-73.2 39.92-73.2s8 108.56-7.28 156.080c101.44 53.76 196 62.56 244.88 13.68z" />
<glyph unicode="automobile" glyph-name="automobile" d="M832 456v-80c0-29.68-16.4-55.68-40.48-69.52-5.36 61.44-56.72 109.52-119.52 109.52-66.32 0-120-53.68-120-120h-90c0 66.32-53.68 120-120 120-60.56 0-110.72-44.88-118.8-103.28-19.040 14.72-31.2 37.6-31.2 63.28v80c0 42.48 33.52 77.44 75.44 79.92l12.64 88.56c4.56 31.84 31.84 55.52 64 55.52h258.4c23.2 0 44.64-12.48 56.16-32.56l54.080-94.64c3.12-5.44 5.36-11.12 6.8-16.8h32.48c44 0 80-36 80-80zM422 296c0-44.183-35.817-80-80-80s-80 35.817-80 80c0 44.183 35.817 80 80 80s80-35.817 80-80zM752 296c0-44.183-35.817-80-80-80s-80 35.817-80 80c0 44.183 35.817 80 80 80s80-35.817 80-80z" />
<glyph unicode="assembly" glyph-name="assembly" d="M512 384v0c-35.2 0-64 28.8-64 64v0c0 35.2 28.8 64 64 64v0c35.2 0 64-28.8 64-64v0c0-35.2-28.8-64-64-64zM526.72 441.76c-2.32-5.52-58.24-135.6-139.68-213.36-63.6-60.64-179.28-134.32-228.24-164.4h-30.8v18.64c34.48 20.96 169.12 104.24 236.96 168.96 76.64 73.040 131.76 201.36 132.32 202.64l29.44-12.48zM847.52 112.48v0c-6.24-6.24-16.4-6.24-22.64 0l-520.4 520.4c-6.24 6.24-6.24 16.4 0 22.64v0c6.24 6.24 16.4 6.24 22.64 0l520.4-520.4c6.24-6.24 6.24-16.4 0-22.64zM390.56 716l-146.56-146.56c-9.52-9.52-24.96-9.52-34.48 0l-56 56c-9.52 9.52-9.52 24.96 0 34.48l146.48 146.64c9.52 9.52 24.96 9.52 34.48 0l56-56c9.6-9.6 9.6-25.040 0.080-34.56z" />
<glyph unicode="artisan" glyph-name="artisan" d="M512 384v0c-35.2 0-64 28.8-64 64v0c0 35.2 28.8 64 64 64v0c35.2 0 64-28.8 64-64v0c0-35.2-28.8-64-64-64zM526.72 441.76c-2.32-5.52-58.24-135.6-139.68-213.36-63.6-60.64-179.28-134.32-228.24-164.4h-30.8v18.64c34.48 20.96 169.12 104.24 236.96 168.96 76.64 73.040 131.76 201.36 132.32 202.64l29.44-12.48zM847.52 112.48v0c-6.24-6.24-16.4-6.24-22.64 0l-520.4 520.4c-6.24 6.24-6.24 16.4 0 22.64v0c6.24 6.24 16.4 6.24 22.64 0l520.4-520.4c6.24-6.24 6.24-16.4 0-22.64zM157.2 632.64l184.16-110.64c9.52-5.68 21.68-4.24 29.52 3.6l63.2 63.2c7.84 7.84 9.36 19.92 3.68 29.44l-109.92 184.8c-8.080 13.52-26.72 15.84-37.84 4.72l-137.36-137.36c-11.12-11.12-8.88-29.68 4.56-37.76z" />
<glyph unicode="appliance" glyph-name="appliance" d="M765.52 832h-507.040c-36.56 0-66.48-29.92-66.48-66.48v-635.040c0-36.56 29.92-66.48 66.48-66.48h507.040c36.56 0 66.48 29.92 66.48 66.48v635.040c0 36.56-29.92 66.48-66.48 66.48zM616 768c17.68 0 32-14.32 32-32s-14.32-32-32-32-32 14.32-32 32c0 17.68 14.32 32 32 32zM768 194.48c0-36.56-29.92-66.48-66.48-66.48h-379.040c-36.56 0-66.48 29.92-66.48 66.48v379.040c0 36.56 29.92 66.48 66.48 66.48h379.040c36.56 0 66.48-29.92 66.48-66.48v-379.040zM736 704c-17.68 0-32 14.32-32 32s14.32 32 32 32 32-14.32 32-32c0-17.68-14.32-32-32-32zM672 384c0-88.366-71.634-160-160-160s-160 71.634-160 160c0 88.366 71.634 160 160 160s160-71.634 160-160z" />
<glyph unicode="advanced_tools" glyph-name="advanced_tools" d="M787.44 664c2.24-8.48-2.88-17.28-11.36-19.6l-61.84-16.56c-1.36-0.32-2.72-0.56-4.080-0.56-0.32 0-0.56 0-0.88 0.080-3.040-0.24-6.16 0.48-8.96 2.080l-28.32 16.32v-24.32c0-3.040-2.4-5.44-5.44-5.44h-21.84c-20.32 0-36.72 16.4-36.72 36.72v11.28h-302.080c-1.6-3.6-3.44-6.96-5.68-10.16l151.2-261.84h52.56c35.2 0 64-28.8 64-64v-136h136c17.6 0 33.6-7.2 45.2-18.8s18.8-27.6 18.8-45.2c0-35.2-28.8-64-64-64h-384c-17.6 0-33.6 7.2-45.2 18.8s-18.8 27.6-18.8 45.2c0 32.48 24.56 59.52 56 63.52v136.48c0 35.2 28.8 64 64 64h1.6l-134 232c-37.36 0.24-67.6 30.64-67.6 68 0 37.52 30.48 68 68 68 24.32 0 45.6-12.8 57.68-32h306.32v11.28c0 20.32 16.4 36.72 36.72 36.72h21.84c3.040 0 5.44-2.4 5.44-5.44v-21.040l28.32 16.32c2.8 1.6 5.92 2.32 8.88 2.080 0.32 0.080 0.56 0.080 0.88 0.080 1.36 0 2.8-0.16 4.16-0.56l61.84-16.56c8.48-2.24 13.6-11.12 11.36-19.6-1.92-7.12-8.4-11.84-15.44-11.84-1.36 0-2.8 0.16-4.16 0.56l-56.72 15.2-39.12-22.64v-29.76l39.12-22.64 56.72 15.2c1.36 0.32 2.72 0.56 4.080 0.56 7.040 0 13.6-4.72 15.52-11.92z" />
</font>
</defs>
</svg>
